<svg xmlns="http://www.w3.org/2000/svg" width="40" height="40" viewBox="0 0 40 40" fill="none">
<path fill-rule="evenodd" clip-rule="evenodd" d="M23.2235 10.7608C21.1183 10.1765 18.8815 10.1765 16.7763 10.7608C14.7936 11.3111 13.1483 12.0322 11.2384 13.2957C11.1649 13.3444 11.0968 13.4481 11.0968 13.5908V21.4162C11.097 21.4191 11.1048 21.5295 11.1948 21.7734C11.2798 22.0039 11.4171 22.2972 11.6148 22.6421C12.0099 23.3311 12.614 24.1699 13.4206 25.0468C14.9624 26.7228 17.1906 28.4801 19.9999 29.5955C22.8092 28.4801 25.0374 26.7228 26.5793 25.0468C27.386 24.1699 27.9901 23.3311 28.3851 22.6421C28.5829 22.2972 28.7202 22.0039 28.8052 21.7734C28.8952 21.5296 28.903 21.4192 28.9032 21.4163L28.9032 13.5908C28.9032 13.4481 28.8351 13.3444 28.7616 13.2957C26.8517 12.0322 25.2063 11.311 23.2235 10.7608ZM16.1552 8.5228C18.6667 7.82573 21.333 7.82574 23.8446 8.52278C26.0558 9.13644 27.9249 9.95734 30.0431 11.3587C30.806 11.8634 31.2258 12.7169 31.2258 13.5908V21.4162C31.2258 21.8091 31.1182 22.2143 30.9843 22.5773C30.8441 22.9573 30.6454 23.3694 30.4 23.7974C29.9087 24.6543 29.1975 25.6313 28.2886 26.6193C26.4719 28.594 23.8066 30.6759 20.4007 31.9286C20.142 32.0238 19.8578 32.0238 19.599 31.9286C16.1931 30.6759 13.5279 28.594 11.7113 26.6192C10.8024 25.6313 10.0913 24.6543 9.59996 23.7974C9.35455 23.3694 9.15589 22.9572 9.01573 22.5773C8.88183 22.2143 8.7742 21.809 8.7742 21.4162V13.5908C8.7742 12.7169 9.19405 11.8634 9.95694 11.3587C12.0751 9.95737 13.9441 9.13647 16.1552 8.5228Z" fill="#FF0032"/>
<path d="M22.0849 15.4023C22.1141 15.372 22.1544 15.3548 22.1965 15.3548H24.1424C24.2787 15.3548 24.3485 15.518 24.2545 15.6166L21.2012 18.8157C21.1448 18.8748 21.144 18.9675 21.1994 19.0276L24.4705 22.5737C24.562 22.6729 24.4917 22.8335 24.3567 22.8335H22.2196C22.1767 22.8335 22.1356 22.8157 22.1063 22.7843L19.391 19.8697C19.3617 19.8382 19.3206 19.8204 19.2777 19.8204H18.687C18.6015 19.8204 18.5321 19.8897 18.5321 19.9752V22.6787C18.5321 22.7642 18.4628 22.8335 18.3773 22.8335H16.671C16.5855 22.8335 16.5161 22.7642 16.5161 22.6787V15.5097C16.5161 15.4242 16.5855 15.3548 16.671 15.3548H18.3773C18.4628 15.3548 18.5321 15.4242 18.5321 15.5097V18.0289C18.5321 18.1144 18.6015 18.1837 18.687 18.1837H19.3442C19.3863 18.1837 19.4266 18.1666 19.4558 18.1362L22.0849 15.4023Z" fill="#FF0032"/>
</svg>