<svg xmlns="http://www.w3.org/2000/svg" width="40" height="40" viewBox="0 0 40 40" fill="none">
<path fill-rule="evenodd" clip-rule="evenodd" d="M11.6377 11.3286C10.5257 11.8787 10.3579 12.3935 10.3579 12.5441C10.3579 12.6947 10.5257 13.2095 11.6377 13.7596C12.6572 14.2639 14.1485 14.6096 15.8594 14.6096C17.5704 14.6096 19.0617 14.2639 20.0812 13.7596C21.1932 13.2095 21.3609 12.6947 21.3609 12.5441C21.3609 12.3935 21.1932 11.8787 20.0812 11.3286C19.0617 10.8242 17.5704 10.4786 15.8594 10.4786C14.1485 10.4786 12.6572 10.8242 11.6377 11.3286ZM10.6337 9.08591C12.032 8.39416 13.8809 8 15.8594 8C17.838 8 19.6868 8.39416 21.0852 9.08591C22.391 9.73191 23.7187 10.8695 23.7187 12.5441C23.7187 14.2187 22.391 15.3562 21.0852 16.0022C19.6868 16.694 17.838 17.0881 15.8594 17.0881C13.8809 17.0881 12.032 16.694 10.6337 16.0022C9.32786 15.3562 8.00016 14.2187 8.00016 12.5441C8.00016 10.8695 9.32786 9.73191 10.6337 9.08591Z" fill="#FF0032"/>
<path fill-rule="evenodd" clip-rule="evenodd" d="M8.18045 18.495C7.83441 19.0747 8.00097 19.8396 8.55248 20.2034C11.3472 22.0468 14.9643 22.0456 15.8299 22.0453C15.8401 22.0453 15.85 22.0453 15.8594 22.0453H15.8681C16.4804 22.0453 18.4426 22.0454 20.5081 21.4206C21.1337 21.2313 21.495 20.5446 21.315 19.8869C21.1349 19.2291 20.4817 18.8494 19.856 19.0386C18.1204 19.5637 16.433 19.5667 15.8594 19.5667C14.9987 19.5667 11.9882 19.5435 9.80562 18.1039C9.25411 17.7401 8.5265 17.9152 8.18045 18.495Z" fill="#FF0032"/>
<path fill-rule="evenodd" clip-rule="evenodd" d="M8.18045 23.4521C7.83441 24.0319 8.00097 24.7968 8.55248 25.1606C11.3472 27.0039 14.9643 27.0028 15.8299 27.0025C15.8401 27.0025 15.85 27.0025 15.8594 27.0025H15.8611C16.2036 27.0025 16.9777 27.0025 17.9503 26.8926C18.5976 26.8194 19.066 26.2085 18.9964 25.5279C18.9268 24.8474 18.3456 24.355 17.6983 24.4282C16.853 24.5237 16.1796 24.5239 15.8594 24.5239C14.9987 24.5239 11.9882 24.5006 9.80562 23.061C9.25411 22.6973 8.5265 22.8724 8.18045 23.4521Z" fill="#FF0032"/>
<path d="M25.5005 31.9999C26.1515 32.01 26.6871 31.4634 26.6967 30.7791C26.7064 30.0947 26.1865 29.5317 25.5354 29.5215C24.9243 29.512 24.3353 29.2801 23.8687 28.8652C23.402 28.4503 23.0867 27.8781 22.9763 27.2462C22.866 26.6143 22.9675 25.9617 23.2636 25.3997C23.5596 24.8376 24.0319 24.4008 24.5999 24.1638C25.168 23.9268 25.7966 23.9041 26.3788 24.0997C26.7654 24.2296 27.1156 24.4504 27.4044 24.742L27.0486 24.6418C26.4197 24.4646 25.7733 24.857 25.6047 25.5181C25.4362 26.1792 25.8094 26.8588 26.4383 27.0359L29.6541 27.9417C30.2829 28.1188 30.9294 27.7265 31.0979 27.0654L31.9595 23.6849C32.1281 23.0238 31.7548 22.3442 31.1259 22.1671C30.497 21.99 29.8506 22.3823 29.6821 23.0434L29.5507 23.5589C28.9314 22.7047 28.0756 22.0677 27.0966 21.7388C25.9948 21.3686 24.8051 21.4115 23.73 21.8601C22.655 22.3087 21.7612 23.1353 21.2009 24.199C20.6406 25.2627 20.4485 26.4978 20.6573 27.6937C20.8661 28.8896 21.4629 29.9724 22.3461 30.7576C23.2292 31.5428 24.344 31.9818 25.5005 31.9999Z" fill="#FF0032"/>
</svg>