<svg xmlns="http://www.w3.org/2000/svg" width="40" height="40" viewBox="0 0 40 40" fill="none">
<path d="M21.0933 12.3226C18.5208 12.3226 16.3256 14.2515 15.854 16.885C15.7427 17.5068 15.2016 17.9912 14.5345 17.9912C12.2186 17.9912 10.3226 19.9036 10.3226 22.2876C10.3226 23.8958 11.1561 25.2662 12.4358 26.0394L12.4738 26.0624L12.5099 26.0882C13.2411 26.6101 13.9323 26.6871 15.7218 26.8521C16.9075 26.9527 20.816 27.0322 22.5058 27.0322C23.1471 27.0322 23.6671 27.5521 23.6671 28.1934C23.6671 28.8348 23.1471 29.3547 22.5058 29.3547C20.817 29.3547 16.8115 29.2761 15.5205 29.166L15.5125 29.1653L15.2699 29.1431C13.7521 29.0052 12.456 28.8875 11.1973 28.0045C9.26904 26.8224 8 24.7239 8 22.2876C8 18.928 10.485 16.1138 13.7417 15.7166C14.6603 12.4397 17.575 10 21.0933 10C25.3617 10 28.7629 13.5979 28.7629 17.9636C28.7629 18.0468 28.7619 18.1291 28.7599 18.2109C29.6376 18.5292 30.3557 19.1253 30.872 19.737C31.4386 20.4083 31.8825 21.242 31.9888 22.0078C32.077 22.6431 31.6335 23.2295 30.9983 23.3177C30.363 23.4059 29.7765 22.9625 29.6883 22.3272C29.6612 22.1316 29.4843 21.6937 29.0972 21.2351C28.7231 20.7919 28.2699 20.4701 27.8317 20.3511C27.0367 20.1405 26.366 19.3983 26.4257 18.4394C26.4355 18.2834 26.4404 18.1266 26.4404 17.9636C26.4404 17.7714 26.4314 17.5819 26.4139 17.3953C26.3967 17.2122 26.3713 17.032 26.3381 16.855C25.846 14.2327 23.6418 12.3226 21.0933 12.3226Z" fill="#FF0032"/>
<path d="M21.1612 14.6451C19.8785 14.6451 18.8386 15.685 18.8386 16.9677C18.8386 17.122 18.8537 17.2728 18.8824 17.4187L15.7173 20.1881C15.4822 20.1079 15.23 20.0645 14.9677 20.0645C13.685 20.0645 12.6451 21.1043 12.6451 22.387C12.6451 23.6697 13.685 24.7096 14.9677 24.7096C16.2504 24.7096 17.2903 23.6697 17.2903 22.387C17.2903 22.2328 17.2752 22.082 17.2465 21.9362L20.4117 19.1667C20.6469 19.2468 20.899 19.2903 21.1612 19.2903C21.2553 19.2903 21.3481 19.2847 21.4392 19.2738L25.9926 25.3451C25.8727 25.6253 25.8063 25.9339 25.8063 26.258C25.8063 27.5407 26.8462 28.5805 28.1289 28.5805C29.4116 28.5805 30.4515 27.5407 30.4515 26.258C30.4515 24.9752 29.4116 23.9354 28.1289 23.9354C28.0348 23.9354 27.9421 23.941 27.8509 23.9519L23.2975 17.8806C23.4174 17.6004 23.4838 17.2918 23.4838 16.9677C23.4838 15.685 22.4439 14.6451 21.1612 14.6451Z" fill="#FF0032"/>
</svg>