<svg xmlns="http://www.w3.org/2000/svg" width="40" height="40" viewBox="0 0 40 40" fill="none">
<g clip-path="url(#clip0_222_83)">
<path d="M15.4293 12.9525C15.4293 13.7991 14.7521 14.4763 13.9055 14.4763C13.0589 14.4763 12.3817 13.7991 12.3817 12.9525C12.3817 12.106 13.0589 11.4287 13.9055 11.4287C14.7521 11.4287 15.4293 12.106 15.4293 12.9525Z" fill="#FF0032"/>
<path d="M15.4293 19.8099C15.4293 20.6565 14.7521 21.3337 13.9055 21.3337C13.0589 21.3337 12.3817 20.6565 12.3817 19.8099C12.3817 18.9634 13.0589 18.2861 13.9055 18.2861C14.7521 18.2861 15.4293 18.9634 15.4293 19.8099Z" fill="#FF0032"/>
<path fill-rule="evenodd" clip-rule="evenodd" d="M30.2865 29.7143C30.2865 29.0831 29.7748 28.5714 29.1436 28.5714H21.9842C21.7836 28.2218 21.4932 27.9314 21.1436 27.7308V24.7619H23.8895C25.2586 24.762 26.4003 24.762 27.3066 24.6401C28.2633 24.5115 29.127 24.2286 29.821 23.5345C30.5151 22.8405 30.798 21.9768 30.9266 21.0202C31.0484 20.1138 31.0484 18.9722 31.0484 17.603V15.1589C31.0484 13.7898 31.0484 12.6481 30.9266 11.7418C30.798 10.7851 30.5151 9.92141 29.821 9.22737C29.127 8.53332 28.2633 8.25039 27.3066 8.12177C26.4003 7.99992 25.2586 7.99996 23.8895 8H16.112C14.7429 7.99996 13.6012 7.99992 12.6949 8.12177C11.7382 8.25039 10.8745 8.53332 10.1805 9.22737C9.48644 9.92141 9.20351 10.7851 9.0749 11.7418C8.95304 12.6481 8.95308 13.7898 8.95313 15.1589V17.6031C8.95308 18.9722 8.95304 20.1138 9.0749 21.0202C9.20351 21.9768 9.48644 22.8405 10.1805 23.5345C10.8745 24.2286 11.7382 24.5115 12.6949 24.6401C13.6012 24.762 14.7429 24.762 16.112 24.7619H18.8579V27.7308C18.5083 27.9314 18.2179 28.2218 18.0173 28.5714H10.8579C10.2267 28.5714 9.71503 29.0831 9.71503 29.7143C9.71503 30.3455 10.2267 30.8571 10.8579 30.8571H18.0173C18.4103 31.5422 19.1483 32 20.0007 32C20.8532 32 21.5912 31.5422 21.9842 30.8571H29.1436C29.7748 30.8571 30.2865 30.3455 30.2865 29.7143ZM12.9994 10.3871C12.2963 10.4816 11.9953 10.645 11.7967 10.8436C11.5982 11.0422 11.4348 11.3431 11.3402 12.0463C11.2413 12.7824 11.2388 13.7691 11.2388 15.2381H28.7626C28.7626 13.7691 28.7602 12.7824 28.6613 12.0463C28.5667 11.3431 28.4033 11.0422 28.2048 10.8436C28.0062 10.645 27.7052 10.4816 27.0021 10.3871C26.266 10.2881 25.2792 10.2857 23.8103 10.2857H16.1912C14.7222 10.2857 13.7355 10.2881 12.9994 10.3871ZM28.7626 17.5238H11.2388C11.2388 18.9928 11.2413 19.9795 11.3402 20.7156C11.4348 21.4188 11.5982 21.7197 11.7967 21.9183C11.9953 22.1169 12.2963 22.2803 12.9994 22.3748C13.7355 22.4738 14.7222 22.4762 16.1912 22.4762H23.8103C25.2792 22.4762 26.266 22.4738 27.0021 22.3748C27.7052 22.2803 28.0062 22.1169 28.2048 21.9183C28.4033 21.7197 28.5667 21.4188 28.6613 20.7156C28.7602 19.9795 28.7626 18.9928 28.7626 17.5238Z" fill="#FF0032"/>
<path fill-rule="evenodd" clip-rule="evenodd" d="M13.9055 14.4763C14.7521 14.4763 15.4293 13.7991 15.4293 12.9525C15.4293 12.106 14.7521 11.4287 13.9055 11.4287C13.0589 11.4287 12.3817 12.106 12.3817 12.9525C12.3817 13.7991 13.0589 14.4763 13.9055 14.4763ZM15.4293 19.8096C15.4293 20.6562 14.7521 21.3334 13.9055 21.3334C13.0589 21.3334 12.3817 20.6562 12.3817 19.8096C12.3817 18.9631 13.0589 18.2858 13.9055 18.2858C14.7521 18.2858 15.4293 18.9631 15.4293 19.8096Z" fill="#FF0032"/>
</g>
<defs>
<clipPath id="clip0_222_83">
<rect width="24" height="24" fill="white" transform="translate(8 8)"/>
</clipPath>
</defs>
</svg>