<svg xmlns="http://www.w3.org/2000/svg" width="40" height="40" viewBox="0 0 40 40" fill="none">
<path fill-rule="evenodd" clip-rule="evenodd" d="M16.9165 12.152C16.0742 13.1955 15.7419 14.4819 15.7419 15.3654C15.7419 16.0068 15.222 16.5267 14.5806 16.5267C13.2261 16.5267 12.1533 16.8749 11.4445 17.4435C10.7687 17.9857 10.3226 18.8054 10.3226 20.0185C10.3226 20.8669 10.7647 21.6485 11.4393 22.1933C11.9383 22.5963 12.0161 23.3274 11.6131 23.8264C11.2102 24.3254 10.479 24.4032 9.98005 24.0002C8.87292 23.1061 8 21.7026 8 20.0185C8 18.1536 8.72605 16.6467 9.99115 15.6319C10.9656 14.8502 12.1932 14.4119 13.515 14.2628C13.7081 13.1113 14.205 11.8134 15.1093 10.6931C16.3549 9.15004 18.3319 8 21.1613 8C25.6087 8 29.4539 11.1323 29.3696 15.6301C30.2953 15.9945 30.9391 16.6874 31.3444 17.4985C31.8651 18.5406 32 19.7726 32 20.7941C32 22.1579 31.4259 23.2146 30.6422 23.9458C30.1733 24.3834 29.4384 24.358 29.0009 23.889C28.5633 23.4201 28.5887 22.6853 29.0576 22.2477C29.4211 21.9086 29.6774 21.448 29.6774 20.7941C29.6774 19.922 29.5531 19.1096 29.2667 18.5366C29.0152 18.0332 28.6639 17.7369 28.0357 17.6862C27.7145 17.6603 27.4185 17.5022 27.2185 17.2495C27.0185 16.9968 26.9325 16.6724 26.981 16.3539C27.4921 12.9973 24.8567 10.3226 21.1613 10.3226C19.0359 10.3226 17.7225 11.1535 16.9165 12.152Z" fill="#FF0032"/>
<path fill-rule="evenodd" clip-rule="evenodd" d="M25.0792 14.5337C25.5327 14.9872 25.5327 15.7225 25.0792 16.176L21.2083 20.047C20.7547 20.5005 20.0195 20.5005 19.5659 20.047L18.0176 18.4986C17.564 18.0451 17.564 17.3098 18.0176 16.8563C18.4711 16.4028 19.2064 16.4028 19.6599 16.8563L20.3871 17.5835L23.4369 14.5337C23.8904 14.0802 24.6257 14.0802 25.0792 14.5337Z" fill="#FF0032"/>
<path d="M14.1935 32C15.4763 32 16.5161 30.9601 16.5161 29.6774C16.5161 28.8177 16.0491 28.0671 15.3548 27.6656V25.8065C15.3548 25.5927 15.5281 25.4194 15.7419 25.4194H18.3752C18.7768 26.1136 19.5274 26.5806 20.3871 26.5806C21.2468 26.5806 21.9974 26.1136 22.399 25.4194H25.0323C25.246 25.4194 25.4194 25.5927 25.4194 25.8065V27.6656C24.7251 28.0671 24.2581 28.8177 24.2581 29.6774C24.2581 30.9601 25.2979 32 26.5806 32C27.8634 32 28.9032 30.9601 28.9032 29.6774C28.9032 28.8177 28.4362 28.0671 27.7419 27.6656V25.8065C27.7419 24.3099 26.5288 23.0968 25.0323 23.0968H22.399C21.9974 22.4026 21.2468 21.9355 20.3871 21.9355C19.5274 21.9355 18.7768 22.4026 18.3752 23.0968H15.7419C14.2454 23.0968 13.0323 24.3099 13.0323 25.8065V27.6656C12.338 28.0671 11.871 28.8177 11.871 29.6774C11.871 30.9601 12.9108 32 14.1935 32Z" fill="#FF0032"/>
</svg>