<svg xmlns="http://www.w3.org/2000/svg" width="40" height="40" viewBox="0 0 40 40" fill="none">
<path fill-rule="evenodd" clip-rule="evenodd" d="M16.7953 12.3662C15.907 13.4621 15.5569 14.8128 15.5569 15.7401C15.5569 16.4151 15.0084 16.9622 14.3318 16.9622C12.9024 16.9622 11.7704 17.3282 11.0227 17.9256C10.3099 18.495 9.83994 19.3555 9.83994 20.6286C9.83994 21.5182 10.3055 22.3388 11.0172 22.9111C11.5439 23.3348 11.6266 24.1042 11.202 24.6296C10.7774 25.1551 10.0061 25.2376 9.4794 24.814C8.3115 23.8747 7.38983 22.3994 7.38983 20.6286C7.38983 18.6679 8.15637 17.0841 9.49111 16.0178C10.519 15.1966 11.8138 14.7362 13.208 14.5796C13.4119 13.3695 13.9363 12.0061 14.8901 10.8293C16.2044 9.20783 18.2898 8 21.2738 8C26.2557 8 29.2622 12.2245 29.1279 16.7581C31.029 17.2952 32.2049 18.7906 32.5765 20.3451C32.7334 21.0017 32.3271 21.6608 31.669 21.8174C31.0109 21.974 30.3501 21.5686 30.1932 20.9121C29.9694 19.9758 29.1858 19.067 27.7482 18.9977C27.4018 18.981 27.0787 18.8186 26.8591 18.5507C26.6395 18.2829 26.544 17.9348 26.5963 17.5927C27.1909 13.7044 24.8076 10.4442 21.2738 10.4442C19.0309 10.4442 17.6452 11.3176 16.7953 12.3662Z" fill="#FF0032"/>
<path fill-rule="evenodd" clip-rule="evenodd" d="M17.0797 19.7966C17.1039 19.7966 17.1282 19.7966 17.1525 19.7966H23.661C23.6853 19.7966 23.7096 19.7966 23.7338 19.7966C24.4381 19.7965 25.0838 19.7964 25.609 19.8671C26.1874 19.9448 26.7988 20.1278 27.3016 20.6306C27.8044 21.1334 27.9874 21.7448 28.0651 22.3232C28.1357 22.8484 28.1357 23.4941 28.1356 24.1984C28.1356 24.2226 28.1356 24.2468 28.1356 24.2712V27.5254C28.1356 27.5497 28.1356 27.574 28.1356 27.5982C28.1357 28.3025 28.1357 28.9482 28.0651 29.4734C27.9874 30.0518 27.8044 30.6632 27.3016 31.166C26.7988 31.6688 26.1874 31.8518 25.609 31.9295C25.0838 32.0002 24.4381 32.0001 23.7338 32C23.7096 32 23.6853 32 23.661 32H17.1525C17.1282 32 17.1039 32 17.0797 32C16.3755 32.0001 15.7298 32.0002 15.2045 31.9295C14.6261 31.8518 14.0148 31.6688 13.512 31.166C13.0091 30.6632 12.8262 30.0518 12.7484 29.4734C12.6778 28.9482 12.6779 28.3025 12.678 27.5982C12.678 27.574 12.678 27.5498 12.678 27.5254V24.2712C12.678 24.2468 12.678 24.2226 12.678 24.1984C12.6779 23.4941 12.6778 22.8484 12.7484 22.3232C12.8262 21.7448 13.0091 21.1334 13.512 20.6306C14.0148 20.1278 14.6261 19.9448 15.2045 19.8671C15.7298 19.7964 16.3755 19.7965 17.0797 19.7966ZM15.2378 22.3564V22.3564V22.3564V22.3564V22.3564V22.3564V22.3564V22.3564V22.3564V22.3564V22.3564ZM15.2378 22.3564C15.2378 22.3564 15.2366 22.3584 15.2356 22.3604C15.2339 22.3636 15.2313 22.3689 15.2279 22.3772C15.2133 22.4126 15.1885 22.4913 15.1673 22.6484C15.1212 22.9913 15.1186 23.4696 15.1186 24.2712V24.678H25.6949V24.2712C25.6949 23.4696 25.6923 22.9913 25.6462 22.6484C25.6251 22.4913 25.6002 22.4126 25.5856 22.3772C25.5823 22.3689 25.5796 22.3636 25.578 22.3604C25.5769 22.3584 25.5758 22.3564 25.5758 22.3564C25.5758 22.3564 25.5738 22.3553 25.5718 22.3542C25.5686 22.3526 25.5632 22.3499 25.555 22.3466C25.5196 22.332 25.4409 22.3071 25.2838 22.286C24.9409 22.2399 24.4625 22.2373 23.661 22.2373H17.1525C16.351 22.2373 15.8726 22.2399 15.5298 22.286C15.3726 22.3071 15.294 22.332 15.2585 22.3466C15.2503 22.3499 15.2449 22.3526 15.2418 22.3542C15.2398 22.3553 15.2378 22.3564 15.2378 22.3564ZM25.6949 27.1186H15.1186V27.5254C15.1186 28.3269 15.1212 28.8053 15.1673 29.1482C15.1885 29.3053 15.2133 29.384 15.2279 29.4194C15.2313 29.4276 15.2339 29.433 15.2356 29.4362C15.2366 29.4382 15.2378 29.4402 15.2378 29.4402C15.2378 29.4402 15.2398 29.4413 15.2418 29.4424C15.2449 29.444 15.2503 29.4467 15.2585 29.45C15.294 29.4646 15.3726 29.4895 15.5298 29.5106C15.8726 29.5567 16.351 29.5593 17.1525 29.5593H23.661C24.4625 29.5593 24.9409 29.5567 25.2838 29.5106C25.4409 29.4895 25.5196 29.4646 25.555 29.45C25.5632 29.4467 25.5686 29.444 25.5718 29.4424C25.5734 29.4415 25.5754 29.4404 25.5754 29.4404V29.4404C25.5754 29.4404 25.5769 29.4382 25.578 29.4362C25.5796 29.433 25.5823 29.4276 25.5856 29.4194C25.6002 29.384 25.6251 29.3053 25.6462 29.1482C25.6923 28.8053 25.6949 28.3269 25.6949 27.5254V27.1186Z" fill="#FF0032"/>
</svg>