<svg xmlns="http://www.w3.org/2000/svg" width="40" height="40" viewBox="0 0 40 40" fill="none">
<path fill-rule="evenodd" clip-rule="evenodd" d="M26.9023 24.931C28.041 24.931 28.9184 25.8867 28.6889 27.3223C28.6196 27.7558 28.3582 28.1049 27.9957 28.3684C27.8156 28.4992 27.628 28.5949 27.4665 28.6555C27.3298 28.7068 27.248 28.7198 27.2275 28.7231C27.2213 28.724 27.2207 28.7241 27.2257 28.7241H23.3455C22.1809 28.7241 21.8966 28.0593 21.8966 27.8391C21.8966 27.5756 22.0025 27.3348 22.2189 27.169C22.4352 27.0032 22.9067 26.8049 23.8245 26.9416C24.3763 27.0238 24.9062 26.6939 25.0761 26.1626C25.2632 25.5771 25.8914 24.931 26.9023 24.931ZM30.9362 27.6815C31.3535 25.0712 29.644 22.6552 26.9023 22.6552C25.2298 22.6552 23.9735 23.5343 23.3016 24.6209C22.3251 24.6123 21.4852 24.8637 20.8343 25.3627C19.9998 26.0024 19.6207 26.9417 19.6207 27.8391C19.6207 29.6419 21.2765 31 23.3455 31H27.2257C27.8561 31 28.6675 30.6935 29.3336 30.2094C30.0382 29.6974 30.7468 28.8664 30.9362 27.6815Z" fill="#FF0032"/>
<path d="M16.2069 9C12.2266 9 9 12.2266 9 16.2069V23.7931C9 27.7734 12.2266 31 16.2069 31H17.408C18.0365 31 18.546 30.4905 18.546 29.8621C18.546 29.2336 18.0365 28.7241 17.408 28.7241H16.2069C13.4836 28.7241 11.2759 26.5164 11.2759 23.7931V16.2069C11.2759 13.4836 13.4836 11.2759 16.2069 11.2759H23.7931C26.5164 11.2759 28.7241 13.4836 28.7241 16.2069V16.9655H20.4713L21.9426 15.4943C22.387 15.0499 22.387 14.3294 21.9426 13.885C21.4982 13.4406 20.7777 13.4406 20.3333 13.885L16.9195 17.2988C16.4751 17.7432 16.4751 18.4637 16.9195 18.9081L20.3333 22.3219C20.7777 22.7663 21.4982 22.7663 21.9426 22.3219C22.387 21.8775 22.387 21.157 21.9426 20.7126L20.4713 19.2414H29.1034C30.1509 19.2414 31 18.3923 31 17.3448V16.2069C31 12.2266 27.7734 9 23.7931 9H16.2069Z" fill="#FF0032"/>
</svg>