<svg xmlns="http://www.w3.org/2000/svg" width="40" height="40" viewBox="0 0 40 40" fill="none">
<g clip-path="url(#clip0_222_78)">
<path d="M21.5 24.5C21.5 25.3284 20.8284 26 20 26C19.1716 26 18.5 25.3284 18.5 24.5C18.5 23.6716 19.1716 23 20 23C20.8284 23 21.5 23.6716 21.5 24.5Z" fill="#FF0032"/>
<path fill-rule="evenodd" clip-rule="evenodd" d="M19.016 22.0764C18.7152 22.1962 18.5129 22.3305 18.4514 22.3796C17.9656 22.767 17.2578 22.6872 16.8704 22.2014C16.483 21.7156 16.5628 21.0078 17.0486 20.6204C17.5055 20.2561 18.6343 19.625 20 19.625C21.3657 19.625 22.4945 20.2561 22.9514 20.6204C23.4372 21.0078 23.517 21.7156 23.1296 22.2014C22.7422 22.6872 22.0344 22.767 21.5486 22.3796C21.4871 22.3305 21.2848 22.1962 20.984 22.0764C20.6897 21.9592 20.3484 21.875 20 21.875C19.6516 21.875 19.3102 21.9592 19.016 22.0764Z" fill="#FF0032"/>
<path fill-rule="evenodd" clip-rule="evenodd" d="M10.625 13.25C9.17525 13.25 8 12.0747 8 10.625C8 9.17525 9.17525 8 10.625 8C12.0747 8 13.25 9.17525 13.25 10.625C13.25 10.9345 13.1965 11.2314 13.0981 11.5071L14.425 12.834C15.2694 12.4056 16.1186 12.0788 17.0466 11.8037C18.9754 11.2321 21.0244 11.2321 22.9532 11.8037C24.6325 12.3014 26.0535 12.9686 27.6557 14.1005C28.2989 14.5549 28.625 15.2975 28.625 16.0248V22.252C28.625 22.8605 28.3347 23.5782 27.9904 24.2194C27.7666 24.6362 27.4833 25.0871 27.1442 25.5532L28.4929 26.9019C28.7686 26.8036 29.0655 26.75 29.375 26.75C30.8247 26.75 32 27.9253 32 29.375C32 30.8247 30.8247 32 29.375 32C27.9253 32 26.75 30.8247 26.75 29.375C26.75 29.0655 26.8036 28.7686 26.9019 28.4929L25.6813 27.2723C24.3574 28.6173 22.5859 29.943 20.4112 30.7971C20.1468 30.901 19.853 30.901 19.5886 30.7971C16.9977 29.7795 14.979 28.0925 13.6079 26.5009C12.9212 25.7038 12.3827 24.9143 12.0095 24.2193C11.6653 23.5781 11.375 22.8605 11.375 22.252V16.0248C11.375 15.2975 11.7011 14.5549 12.3443 14.1005C12.3767 14.0776 12.4091 14.0549 12.4413 14.0323L11.5071 13.0981C11.2314 13.1965 10.9345 13.25 10.625 13.25ZM22.3139 13.961C20.8023 13.513 19.1975 13.513 17.686 13.961C16.2417 14.389 15.0449 14.9481 13.6476 15.9346C13.6462 15.9365 13.644 15.94 13.6413 15.9456C13.6331 15.9623 13.625 15.9898 13.625 16.0248V22.2511L13.6251 22.2481C13.6251 22.2481 13.6323 22.3223 13.6898 22.4887C13.7497 22.6621 13.848 22.8871 13.9919 23.155C14.2792 23.6901 14.7208 24.3455 15.3126 25.0324C16.4227 26.3211 18.0112 27.6632 19.9999 28.5323C21.9886 27.6632 23.5771 26.3211 24.6874 25.0324C25.2791 24.3455 25.7208 23.6901 26.0081 23.1549C26.152 22.887 26.2503 22.6621 26.3102 22.4887C26.3677 22.3223 26.3749 22.2481 26.3749 22.2481L26.375 22.2511V16.0248C26.375 15.9898 26.3669 15.9623 26.3587 15.9456C26.356 15.94 26.3538 15.9365 26.3524 15.9346C24.9551 14.9481 23.7582 14.389 22.3139 13.961Z" fill="#FF0032"/>
<path d="M17.0278 19.3128C17.4217 18.9359 18.6392 18.125 20 18.125C21.3608 18.125 22.5783 18.9359 22.9722 19.3128C23.4211 19.7424 24.1333 19.7267 24.5628 19.2778C24.9924 18.8289 24.9767 18.1167 24.5278 17.6872C23.8766 17.0641 22.131 15.875 20 15.875C17.869 15.875 16.1234 17.0641 15.4722 17.6872C15.0233 18.1167 15.0076 18.8289 15.4372 19.2778C15.8667 19.7267 16.5789 19.7424 17.0278 19.3128Z" fill="#FF0032"/>
<path fill-rule="evenodd" clip-rule="evenodd" d="M21.5 24.5C21.5 25.3284 20.8284 26 20 26C19.1716 26 18.5 25.3284 18.5 24.5C18.5 23.6716 19.1716 23 20 23C20.8284 23 21.5 23.6716 21.5 24.5ZM18.4514 22.3796C18.5129 22.3305 18.7152 22.1962 19.016 22.0764C19.3102 21.9592 19.6516 21.875 20 21.875C20.3484 21.875 20.6897 21.9592 20.984 22.0764C21.2848 22.1962 21.4871 22.3305 21.5486 22.3796C22.0344 22.767 22.7422 22.6872 23.1296 22.2014C23.517 21.7156 23.4372 21.0078 22.9514 20.6204C22.4945 20.2561 21.3657 19.625 20 19.625C18.6343 19.625 17.5055 20.2561 17.0486 20.6204C16.5628 21.0078 16.483 21.7156 16.8704 22.2014C17.2578 22.6872 17.9656 22.767 18.4514 22.3796Z" fill="#FF0032"/>
</g>
<defs>
<clipPath id="clip0_222_78">
<rect width="24" height="24" fill="white" transform="translate(8 8)"/>
</clipPath>
</defs>
</svg>