<svg xmlns="http://www.w3.org/2000/svg" width="40" height="40" viewBox="0 0 40 40" fill="none"><path fill-rule="evenodd" clip-rule="evenodd" d="M27.3146 24.6448C28.8514 24.6448 29.9109 25.8803 29.6339 27.5517C29.5455 28.0848 29.2099 28.5173 28.7463 28.8422C28.5172 29.0027 28.2772 29.1212 28.0671 29.1972C27.9629 29.2349 27.8732 29.2596 27.8032 29.2742C27.7383 29.2877 27.7045 29.2896 27.6999 29.2899L23.0797 29.29C21.5738 29.29 21.1611 28.4468 21.1611 28.1287C21.1611 27.8024 21.297 27.4835 21.6044 27.2563C21.9171 27.0251 22.5453 26.7919 23.6846 26.9556C24.2412 27.0355 24.7751 26.7052 24.952 26.1715C25.1872 25.4619 25.9915 24.6448 27.3146 24.6448ZM31.9252 27.9315C32.4181 24.9577 30.3977 22.3222 27.3146 22.3222C25.3726 22.3222 23.9082 23.3307 23.1474 24.5812C21.974 24.5497 20.982 24.8282 20.2239 25.3886C19.28 26.0862 18.8385 27.1222 18.8385 28.1287C18.8385 30.1331 20.7358 31.6125 23.0797 31.6125H27.6996C28.3862 31.6125 29.3078 31.2848 30.0793 30.7442C30.8861 30.1787 31.7055 29.2564 31.9252 27.9315Z" fill="#FF0032"/><path fill-rule="evenodd" clip-rule="evenodd" d="M23.8707 13.0319C24.5121 13.0319 25.032 13.5519 25.032 14.1932V20.3868C25.032 21.0281 24.5121 21.548 23.8707 21.548C23.2294 21.548 22.7095 21.0281 22.7095 20.3868V14.1932C22.7095 13.5519 23.2294 13.0319 23.8707 13.0319Z" fill="#FF0032"/><path fill-rule="evenodd" clip-rule="evenodd" d="M19.9998 15.3545C20.6411 15.3545 21.1611 15.8744 21.1611 16.5158V20.3868C21.1611 21.0281 20.6411 21.548 19.9998 21.548C19.3584 21.548 18.8385 21.0281 18.8385 20.3868V16.5158C18.8385 15.8744 19.3584 15.3545 19.9998 15.3545Z" fill="#FF0032"/><path fill-rule="evenodd" clip-rule="evenodd" d="M16.1288 16.9029C16.7702 16.9029 17.2901 17.4228 17.2901 18.0642V20.3868C17.2901 21.0281 16.7702 21.548 16.1288 21.548C15.4875 21.548 14.9675 21.0281 14.9675 20.3868V18.0642C14.9675 17.4228 15.4875 16.9029 16.1288 16.9029Z" fill="#FF0032"/><path fill-rule="evenodd" clip-rule="evenodd" d="M13.4192 30.4512C13.4192 29.8099 13.9391 29.29 14.5804 29.29H16.903C17.5444 29.29 18.0643 29.8099 18.0643 30.4512C18.0643 31.0926 17.5444 31.6125 16.903 31.6125H14.5804C13.9391 31.6125 13.4192 31.0926 13.4192 30.4512Z" fill="#FF0032"/><path fill-rule="evenodd" clip-rule="evenodd" d="M17.4558 8.38675C17.5286 8.38677 17.6024 8.38678 17.6772 8.38678L20.0642 8.38678C22.1842 8.38677 23.8641 8.38676 25.2055 8.52322C26.58 8.66304 27.7274 8.95565 28.7311 9.62629C29.5341 10.1629 30.2236 10.8524 30.7602 11.6555C31.4309 12.6592 31.7235 13.8066 31.8633 15.181C31.9998 16.5224 31.9998 18.2023 31.9998 20.3223V20.7738C31.9998 21.4152 31.4798 21.9351 30.8385 21.9351C30.1971 21.9351 29.6772 21.4152 29.6772 20.7738V20.3868C29.6772 18.1879 29.6758 16.6262 29.5527 15.4161C29.4315 14.2253 29.2022 13.5043 28.8291 12.9458C28.462 12.3964 27.9902 11.9246 27.4407 11.5574C26.8822 11.1843 26.1613 10.955 24.9705 10.8339C23.7603 10.7108 22.1986 10.7094 19.9998 10.7094H17.6772C15.4319 10.7094 14.5666 10.722 13.8939 10.926C12.2855 11.4139 11.027 12.6725 10.5391 14.2808C10.335 14.9536 10.3224 15.8188 10.3224 18.0642V18.8384C10.3224 20.333 10.328 20.9107 10.4191 21.3685C10.8162 23.3647 12.3767 24.9252 14.3729 25.3223C14.8307 25.4134 15.4084 25.419 16.903 25.419C17.5444 25.419 18.0643 25.9389 18.0643 26.5803C18.0643 27.2216 17.5444 27.7416 16.903 27.7416C16.8532 27.7416 16.804 27.7416 16.7555 27.7416C15.4579 27.7418 14.6319 27.7419 13.9198 27.6003C11.0022 27.0199 8.72148 24.7392 8.14114 21.8216C7.99949 21.1095 7.99961 20.2835 7.99981 18.9859C7.99981 18.9374 7.99982 18.8882 7.99982 18.8384V18.0642C7.99982 17.9894 7.9998 17.9156 7.99979 17.8427C7.99936 15.8947 7.99908 14.6531 8.31652 13.6066C9.02957 11.256 10.869 9.41653 13.2196 8.70348C14.2661 8.38604 15.5077 8.38632 17.4558 8.38675Z" fill="#FF0032"/></svg>