<svg xmlns="http://www.w3.org/2000/svg" width="40" height="40" viewBox="0 0 40 40" fill="none">
<path fill-rule="evenodd" clip-rule="evenodd" d="M27.3148 24.6448C28.8516 24.6448 29.9111 25.8803 29.6341 27.5517C29.5457 28.0848 29.2102 28.5173 28.7466 28.8422C28.5174 29.0027 28.2774 29.1212 28.0674 29.1972C27.9631 29.2349 27.8734 29.2596 27.8035 29.2742C27.7386 29.2877 27.7048 29.2896 27.7001 29.2899V29.2899L23.08 29.29C21.574 29.29 21.1613 28.4468 21.1613 28.1287C21.1613 27.8024 21.2973 27.4835 21.6047 27.2563C21.9174 27.0251 22.5455 26.7919 23.6848 26.9556C24.2414 27.0355 24.7753 26.7052 24.9522 26.1715C25.1875 25.4619 25.9918 24.6448 27.3148 24.6448ZM31.9254 27.9315C32.4183 24.9577 30.3979 22.3222 27.3148 22.3222C25.3728 22.3222 23.9085 23.3307 23.1477 24.5812C21.9743 24.5497 20.9823 24.8282 20.2241 25.3886C19.2803 26.0862 18.8387 27.1222 18.8387 28.1287C18.8387 30.1331 20.736 31.6125 23.08 31.6125H27.6998C28.3865 31.6125 29.308 31.2848 30.0795 30.7442C30.8864 30.1787 31.7058 29.2564 31.9254 27.9315Z" fill="#FF0032"/>
<path fill-rule="evenodd" clip-rule="evenodd" d="M23.871 13.0319C24.5124 13.0319 25.0323 13.5519 25.0323 14.1932V20.3868C25.0323 21.0281 24.5124 21.548 23.871 21.548C23.2296 21.548 22.7097 21.0281 22.7097 20.3868V14.1932C22.7097 13.5519 23.2296 13.0319 23.871 13.0319Z" fill="#FF0032"/>
<path fill-rule="evenodd" clip-rule="evenodd" d="M20 15.3545C20.6414 15.3545 21.1613 15.8744 21.1613 16.5158V20.3868C21.1613 21.0281 20.6414 21.548 20 21.548C19.3587 21.548 18.8387 21.0281 18.8387 20.3868V16.5158C18.8387 15.8744 19.3587 15.3545 20 15.3545Z" fill="#FF0032"/>
<path fill-rule="evenodd" clip-rule="evenodd" d="M16.1291 16.9029C16.7704 16.9029 17.2904 17.4228 17.2904 18.0642V20.3868C17.2904 21.0281 16.7704 21.548 16.1291 21.548C15.4877 21.548 14.9678 21.0281 14.9678 20.3868V18.0642C14.9678 17.4228 15.4877 16.9029 16.1291 16.9029Z" fill="#FF0032"/>
<path fill-rule="evenodd" clip-rule="evenodd" d="M13.4194 30.4512C13.4194 29.8099 13.9393 29.29 14.5807 29.29H16.9033C17.5446 29.29 18.0646 29.8099 18.0646 30.4512C18.0646 31.0926 17.5446 31.6125 16.9033 31.6125H14.5807C13.9393 31.6125 13.4194 31.0926 13.4194 30.4512Z" fill="#FF0032"/>
<path fill-rule="evenodd" clip-rule="evenodd" d="M17.456 8.38675C17.5288 8.38677 17.6026 8.38678 17.6775 8.38678L20.0644 8.38678C22.1845 8.38677 23.8643 8.38676 25.2058 8.52322C26.5802 8.66304 27.7276 8.95565 28.7313 9.62629C29.5344 10.1629 30.2239 10.8524 30.7605 11.6555C31.4311 12.6592 31.7237 13.8066 31.8636 15.181C32 16.5224 32 18.2023 32 20.3223V20.7738C32 21.4152 31.4801 21.9351 30.8387 21.9351C30.1974 21.9351 29.6774 21.4152 29.6774 20.7738V20.3868C29.6774 18.1879 29.676 16.6262 29.5529 15.4161C29.4318 14.2253 29.2025 13.5043 28.8293 12.9458C28.4622 12.3964 27.9904 11.9246 27.4409 11.5574C26.8825 11.1843 26.1615 10.955 24.9707 10.8339C23.7605 10.7108 22.1988 10.7094 20 10.7094H17.6775C15.4321 10.7094 14.5669 10.722 13.8941 10.926C12.2858 11.4139 11.0272 12.6725 10.5393 14.2808C10.3352 14.9536 10.3226 15.8188 10.3226 18.0642V18.8384C10.3226 20.333 10.3283 20.9107 10.4193 21.3685C10.8164 23.3647 12.3769 24.9252 14.3731 25.3223C14.831 25.4134 15.4087 25.419 16.9033 25.419C17.5446 25.419 18.0646 25.9389 18.0646 26.5803C18.0646 27.2216 17.5446 27.7416 16.9033 27.7416C16.8534 27.7416 16.8043 27.7416 16.7558 27.7416C15.4581 27.7418 14.6322 27.7419 13.92 27.6002C11.0024 27.0199 8.72173 24.7392 8.14138 21.8216C7.99973 21.1095 7.99986 20.2835 8.00005 18.9859C8.00006 18.9374 8.00006 18.8882 8.00006 18.8384V18.0642C8.00006 17.9894 8.00005 17.9156 8.00003 17.8427C7.9996 15.8947 7.99932 14.6531 8.31676 13.6066C9.02981 11.256 10.8693 9.41653 13.2199 8.70348C14.2663 8.38604 15.508 8.38632 17.456 8.38675Z" fill="#FF0032"/>
</svg>