<svg xmlns="http://www.w3.org/2000/svg" width="40" height="40" viewBox="0 0 40 40" fill="none">
<path fill-rule="evenodd" clip-rule="evenodd" d="M23.2698 10.6261C22.4845 10.3403 21.4602 10.3227 18.796 10.3227H18.4519C16.9931 10.3227 15.9572 10.3233 15.1422 10.3789C14.3376 10.4338 13.8334 10.5384 13.4294 10.7057C12.1964 11.2165 11.2167 12.1961 10.706 13.4291C10.5387 13.8332 10.4341 14.3373 10.3792 15.1419C10.3286 15.8829 10.3235 16.8065 10.323 18.0646H26.5809C26.5808 15.4323 26.5618 14.4148 26.2775 13.6338C25.7687 12.236 24.6676 11.1349 23.2698 10.6261ZM10.3229 20.3871H26.624C26.6452 20.3871 26.6682 20.3873 26.6929 20.3875C26.9236 20.3891 27.2965 20.3918 27.63 20.2704C28.1676 20.0747 28.5911 19.6512 28.7868 19.1136C28.9082 18.7801 28.9055 18.4073 28.9039 18.1765C28.9037 18.1519 28.9035 18.1288 28.9035 18.1076C28.9035 18.0189 28.9035 17.9314 28.9036 17.845C28.9042 15.5349 28.9046 14.0609 28.46 12.8394C27.7164 10.7965 26.1071 9.1872 24.0642 8.44364C22.8427 7.99905 21.3687 7.99944 19.0586 8.00004C18.9723 8.00007 18.8847 8.00009 18.796 8.00009L18.4096 8.00009C17.0026 8.00008 15.8874 8.00008 14.9841 8.06171C14.0612 8.12468 13.2748 8.25583 12.5406 8.55994C10.7385 9.30641 9.30669 10.7382 8.56023 12.5403C8.25612 13.2745 8.12497 14.0609 8.062 14.9838C8.00036 15.8872 8.00037 17.0023 8.00037 18.4093L8.00037 23.0968C8.00037 27.1588 11.2932 30.4516 15.3552 30.4516C15.9965 30.4516 16.5165 29.9317 16.5165 29.2903C16.5165 28.649 15.9965 28.129 15.3552 28.129C12.576 28.129 10.3229 25.876 10.3229 23.0968V20.3871Z" fill="#FF0032"/>
<path fill-rule="evenodd" clip-rule="evenodd" d="M27.3151 25.0323C28.8519 25.0323 29.9114 26.2678 29.6344 27.9391C29.546 28.4723 29.2105 28.9048 28.7469 29.2296C28.5177 29.3902 28.2777 29.5086 28.0676 29.5847C27.9634 29.6224 27.8737 29.6471 27.8038 29.6617C27.7389 29.6752 27.7051 29.6771 27.7004 29.6774V29.6774L23.0803 29.6774C21.5743 29.6774 21.1616 28.8343 21.1616 28.5161C21.1616 28.1899 21.2976 27.871 21.605 27.6438C21.9177 27.4126 22.5458 27.1794 23.6851 27.3431C24.2417 27.423 24.7756 27.0927 24.9525 26.559C25.1878 25.8493 25.992 25.0323 27.3151 25.0323ZM31.9257 28.319C32.4186 25.3452 30.3982 22.7097 27.3151 22.7097C25.3731 22.7097 23.9088 23.7182 23.1479 24.9686C21.9746 24.9372 20.9826 25.2156 20.2244 25.7761C19.2806 26.4737 18.839 27.5096 18.839 28.5161C18.839 30.5206 20.7363 32 23.0803 32H27.7001C28.3868 32 29.3083 31.6723 30.0798 31.1317C30.8867 30.5662 31.7061 29.6439 31.9257 28.319Z" fill="#FF0032"/>
<path fill-rule="evenodd" clip-rule="evenodd" d="M12.6455 13.8065C12.6455 13.1652 13.1654 12.6452 13.8068 12.6452L16.1294 12.6452C16.7707 12.6452 17.2907 13.1652 17.2907 13.8065C17.2907 14.4479 16.7707 14.9678 16.1294 14.9678H13.8068C13.1654 14.9678 12.6455 14.4479 12.6455 13.8065Z" fill="#FF0032"/>
<path fill-rule="evenodd" clip-rule="evenodd" d="M12.6455 23.0968C12.6455 22.4554 13.1654 21.9355 13.8068 21.9355H16.1294C16.7707 21.9355 17.2907 22.4554 17.2907 23.0968C17.2907 23.7382 16.7707 24.2581 16.1294 24.2581H13.8068C13.1654 24.2581 12.6455 23.7382 12.6455 23.0968Z" fill="#FF0032"/>
</svg>