<svg xmlns="http://www.w3.org/2000/svg" width="40" height="40" viewBox="0 0 40 40" fill="none">
<path fill-rule="evenodd" clip-rule="evenodd" d="M29.75 20.622C30.3713 20.622 30.875 21.1257 30.875 21.747C30.875 22.1275 30.7707 22.5201 30.641 22.8718C30.5052 23.2398 30.3127 23.6391 30.075 24.0537C29.8748 24.4029 29.6369 24.7727 29.3629 25.1551C29.3519 25.1705 29.3409 25.1858 29.3298 25.2012C29.2634 25.2931 29.1949 25.3858 29.1244 25.479C28.8017 25.906 28.436 26.3455 28.0296 26.7874C27.5231 27.338 26.9485 27.8971 26.3083 28.4432C24.8631 29.6762 23.0836 30.8427 20.9984 31.6941C20.7978 31.776 20.5944 31.855 20.3882 31.9308C20.1375 32.023 19.8622 32.023 19.6115 31.9308C16.5986 30.8227 14.1847 29.0448 12.45 27.2903C12.0132 26.8484 12.0172 26.1361 12.459 25.6993C12.9009 25.2625 13.6132 25.2665 14.05 25.7083C15.5186 27.1937 17.5273 28.689 19.9999 29.6707C20.1209 29.6226 20.2407 29.5734 20.3595 29.5229C22.1109 28.7791 23.6184 27.7814 24.8532 26.7272C25.418 26.245 25.9257 25.751 26.3737 25.2641C26.7644 24.8393 27.1061 24.4238 27.3979 24.031C27.4445 23.9684 27.4898 23.9063 27.5338 23.8449C27.7657 23.5211 27.9623 23.215 28.1231 22.9345C28.3147 22.6004 28.4477 22.3162 28.5301 22.093C28.6172 21.8568 28.6248 21.7499 28.625 21.747C28.625 21.1257 29.1287 20.622 29.75 20.622Z" fill="#FF0032"/>
<path fill-rule="evenodd" clip-rule="evenodd" d="M17.6602 10.0396C17.8263 10.6383 17.4757 11.2583 16.877 11.4245C14.9563 11.9576 13.3625 12.6561 11.5122 13.8802C11.441 13.9273 11.375 14.0278 11.375 14.166V21.7469C11.375 22.3683 10.8713 22.8719 10.25 22.8719C9.62868 22.8719 9.125 22.3683 9.125 21.7469V14.166C9.125 13.3195 9.53173 12.4926 10.2708 12.0037C12.3227 10.6462 14.1333 9.85092 16.2753 9.25643C16.874 9.09027 17.494 9.4409 17.6602 10.0396Z" fill="#FF0032"/>
<path fill-rule="evenodd" clip-rule="evenodd" d="M21.5238 9.91601C21.6511 9.30785 22.2472 8.91798 22.8554 9.0452C23.1468 9.10616 23.4366 9.17658 23.7244 9.25645C25.8665 9.85094 27.6772 10.6462 29.7292 12.0037C30.4683 12.4927 30.875 13.3195 30.875 14.1661V16.625C30.875 17.2463 30.3713 17.75 29.75 17.75C29.1287 17.75 28.625 17.2463 28.625 16.625V14.1661C28.625 14.0279 28.559 13.9274 28.4878 13.8802C26.6375 12.6562 25.0436 11.9576 23.1227 11.4245C22.8817 11.3576 22.6389 11.2986 22.3946 11.2475C21.7865 11.1203 21.3966 10.5242 21.5238 9.91601Z" fill="#FF0032"/>
<path fill-rule="evenodd" clip-rule="evenodd" d="M21.125 10.25C21.125 9.00736 22.1324 8 23.375 8C24.6176 8 25.625 9.00736 25.625 10.25C25.625 11.4926 24.6176 12.5 23.375 12.5C22.1324 12.5 21.125 11.4926 21.125 10.25Z" fill="#FF0032"/>
<path fill-rule="evenodd" clip-rule="evenodd" d="M8 21.5C8 20.2574 9.00736 19.25 10.25 19.25C11.4926 19.25 12.5 20.2574 12.5 21.5C12.5 22.7426 11.4926 23.75 10.25 23.75C9.00736 23.75 8 22.7426 8 21.5Z" fill="#FF0032"/>
<path fill-rule="evenodd" clip-rule="evenodd" d="M27.5 22.25C27.5 21.0074 28.5074 20 29.75 20C30.9926 20 32 21.0074 32 22.25C32 23.4926 30.9926 24.5 29.75 24.5C28.5074 24.5 27.5 23.4926 27.5 22.25Z" fill="#FF0032"/>
<path fill-rule="evenodd" clip-rule="evenodd" d="M18.7084 13.5069C19.1179 13.3373 19.5567 13.25 19.9999 13.25C20.4432 13.25 20.882 13.3373 21.2915 13.5069C21.701 13.6765 22.073 13.9251 22.3864 14.2385C22.6998 14.5519 22.9484 14.924 23.118 15.3335C23.2876 15.7429 23.3749 16.1818 23.3749 16.625C23.3749 16.625 23.3749 16.6249 23.3749 16.625L23.375 18.1249C23.375 18.7462 22.8714 19.25 22.2501 19.25C21.6288 19.25 21.125 18.7464 21.125 18.1251L21.1249 16.6251C21.1249 16.4774 21.0958 16.331 21.0393 16.1945C20.9827 16.058 20.8999 15.934 20.7954 15.8295C20.6909 15.725 20.5669 15.6422 20.4304 15.5856C20.294 15.5291 20.1477 15.5 19.9999 15.5C19.8522 15.5 19.7059 15.5291 19.5695 15.5856C19.433 15.6422 19.309 15.725 19.2045 15.8295C19.1 15.934 19.0172 16.058 18.9606 16.1945C18.9041 16.331 18.875 16.4773 18.875 16.625V18.125C18.875 18.7463 18.3713 19.25 17.75 19.25C17.1287 19.25 16.625 18.7463 16.625 18.125V16.625C16.625 16.1818 16.7123 15.7429 16.8819 15.3335C17.0515 14.924 17.3001 14.5519 17.6135 14.2385C17.9269 13.9251 18.2989 13.6765 18.7084 13.5069Z" fill="#FF0032"/>
<path fill-rule="evenodd" clip-rule="evenodd" d="M19.1829 17C19.2052 17 19.2276 17 19.25 17H20.75C20.7724 17 20.7948 17 20.8171 17C21.4663 16.9999 22.0616 16.9998 22.5458 17.0649C23.079 17.1366 23.6426 17.3053 24.1062 17.7688C24.5697 18.2324 24.7384 18.796 24.8101 19.3292C24.8752 19.8134 24.8751 20.4087 24.875 21.0579C24.875 21.0802 24.875 21.1026 24.875 21.125V21.875C24.875 21.8974 24.875 21.9198 24.875 21.9421C24.8751 22.5913 24.8752 23.1866 24.8101 23.6708C24.7384 24.204 24.5697 24.7676 24.1062 25.2312C23.6426 25.6947 23.079 25.8634 22.5458 25.9351C22.0616 26.0002 21.4663 26.0001 20.8171 26C20.7948 26 20.7724 26 20.75 26H19.25C19.2276 26 19.2052 26 19.1829 26C18.5337 26.0001 17.9384 26.0002 17.4542 25.9351C16.921 25.8634 16.3574 25.6947 15.8938 25.2312C15.4303 24.7676 15.2616 24.204 15.1899 23.6708C15.1248 23.1866 15.1249 22.5913 15.125 21.9421C15.125 21.9198 15.125 21.8974 15.125 21.875V21.125C15.125 21.1026 15.125 21.0802 15.125 21.0579C15.1249 20.4087 15.1248 19.8134 15.1899 19.3292C15.2616 18.796 15.4303 18.2324 15.8938 17.7688C16.3574 17.3053 16.921 17.1366 17.4542 17.0649C17.9384 16.9998 18.5337 16.9999 19.1829 17ZM17.4848 19.3598C17.4854 19.3594 17.4855 19.3592 17.4848 19.3598C17.4842 19.3605 17.4844 19.3604 17.4848 19.3598C17.4849 19.3598 17.4848 19.3599 17.4848 19.3598C17.4842 19.3605 17.4844 19.3604 17.4848 19.3598C17.4849 19.3598 17.4848 19.3599 17.4848 19.3598C17.4842 19.3605 17.4844 19.3604 17.4848 19.3598C17.4854 19.3594 17.4855 19.3592 17.4848 19.3598C17.4849 19.3598 17.4848 19.3599 17.4848 19.3598C17.4854 19.3594 17.4855 19.3592 17.4848 19.3598C17.4849 19.3598 17.4848 19.3599 17.4848 19.3598ZM17.4848 19.3598C17.4844 19.3605 17.4838 19.3617 17.4828 19.3635C17.4813 19.3664 17.4789 19.3714 17.4757 19.3789C17.4623 19.4116 17.4394 19.4842 17.4199 19.629C17.3774 19.9451 17.375 20.3861 17.375 21.125V21.875C17.375 22.6139 17.3774 23.0549 17.4199 23.371C17.4394 23.5158 17.4623 23.5884 17.4757 23.6211C17.4789 23.6286 17.4813 23.6336 17.4828 23.6365C17.4838 23.6383 17.4844 23.6395 17.4848 23.6402C17.4855 23.6406 17.4867 23.6412 17.4885 23.6422C17.4914 23.6437 17.4964 23.6461 17.5039 23.6493C17.5366 23.6627 17.6092 23.6856 17.754 23.7051C18.0701 23.7476 18.5111 23.75 19.25 23.75H20.75C21.4889 23.75 21.9299 23.7476 22.246 23.7051C22.3908 23.6856 22.4634 23.6627 22.4961 23.6493C22.5036 23.6461 22.5086 23.6437 22.5115 23.6422C22.5133 23.6412 22.5145 23.6406 22.5152 23.6402C22.5156 23.6395 22.5162 23.6383 22.5172 23.6365C22.5187 23.6336 22.5211 23.6286 22.5243 23.6211C22.5377 23.5884 22.5606 23.5158 22.5801 23.371C22.6226 23.0549 22.625 22.6139 22.625 21.875V21.125C22.625 20.3861 22.6226 19.9451 22.5801 19.629C22.5606 19.4842 22.5377 19.4116 22.5243 19.3789C22.5211 19.3714 22.5187 19.3664 22.5172 19.3635C22.5162 19.3617 22.5156 19.3605 22.5152 19.3598C22.5145 19.3594 22.5133 19.3588 22.5115 19.3578C22.5086 19.3563 22.5036 19.3539 22.4961 19.3507C22.4634 19.3373 22.3908 19.3144 22.246 19.2949C21.9299 19.2524 21.4889 19.25 20.75 19.25H19.25C18.5111 19.25 18.0701 19.2524 17.754 19.2949C17.6092 19.3144 17.5366 19.3373 17.5039 19.3507C17.4964 19.3539 17.4914 19.3563 17.4885 19.3578C17.4867 19.3588 17.4855 19.3594 17.4848 19.3598Z" fill="#FF0032"/>
</svg>