<svg xmlns="http://www.w3.org/2000/svg" width="40" height="40" viewBox="0 0 40 40" fill="none">
<path fill-rule="evenodd" clip-rule="evenodd" d="M23.2235 10.7608C21.1183 10.1765 18.8815 10.1765 16.7763 10.7608C14.7936 11.3111 13.1483 12.0322 11.2384 13.2957C11.1649 13.3444 11.0968 13.4481 11.0968 13.5908V21.4162L11.0968 21.4163C11.097 21.4191 11.1048 21.5295 11.1948 21.7734C11.2798 22.0039 11.4171 22.2972 11.6148 22.6421C12.0099 23.3311 12.614 24.1699 13.4206 25.0468C14.9624 26.7228 17.1906 28.4801 19.9999 29.5955C22.8092 28.4801 25.0374 26.7228 26.5793 25.0468C27.386 24.1699 27.9901 23.3311 28.3851 22.6421C28.5829 22.2972 28.7202 22.0039 28.8052 21.7734C28.8952 21.5296 28.903 21.4192 28.9032 21.4163L28.9032 21.4162V13.5908C28.9032 13.4481 28.8351 13.3444 28.7616 13.2957C26.8517 12.0322 25.2063 11.311 23.2235 10.7608ZM16.1552 8.5228C18.6667 7.82573 21.333 7.82574 23.8446 8.52278C26.0558 9.13644 27.9249 9.95734 30.0431 11.3587C30.806 11.8634 31.2258 12.7169 31.2258 13.5908V21.4162C31.2258 21.8091 31.1182 22.2143 30.9843 22.5773C30.8441 22.9573 30.6454 23.3694 30.4 23.7974C29.9087 24.6543 29.1975 25.6313 28.2886 26.6193C26.4719 28.594 23.8066 30.6759 20.4007 31.9286C20.142 32.0238 19.8578 32.0238 19.599 31.9286C16.1931 30.6759 13.5279 28.594 11.7113 26.6192C10.8024 25.6313 10.0913 24.6543 9.59996 23.7974C9.35455 23.3694 9.15589 22.9572 9.01573 22.5773C8.88183 22.2143 8.7742 21.809 8.7742 21.4162V13.5908C8.7742 12.7169 9.19405 11.8634 9.95694 11.3587C12.0751 9.95737 13.9441 9.13647 16.1552 8.5228Z" fill="#FF0032"/>
<path fill-rule="evenodd" clip-rule="evenodd" d="M25.4663 16.0823C25.9198 16.5358 25.9198 17.2711 25.4663 17.7246L20.047 23.144C19.5935 23.5975 18.8582 23.5975 18.4047 23.144L15.3079 20.0472C14.8544 19.5937 14.8544 18.8584 15.3079 18.4049C15.7614 17.9514 16.4967 17.9514 16.9502 18.4049L19.2258 20.6805L23.824 16.0823C24.2775 15.6288 25.0128 15.6288 25.4663 16.0823Z" fill="#FF0032"/>
</svg>