<svg xmlns="http://www.w3.org/2000/svg" width="40" height="40" viewBox="0 0 40 40" fill="none"><path fill-rule="evenodd" clip-rule="evenodd" d="M20.0002 8C13.8004 8 8.77441 13.026 8.77441 19.2258V21.5484V24.6452C8.77441 26.9968 10.6808 28.9032 13.0325 28.9032C15.3841 28.9032 17.2905 26.9968 17.2905 24.6452V21.5484C17.2905 19.1967 15.3841 17.2903 13.0325 17.2903C12.3878 17.2903 11.7766 17.4336 11.229 17.69C11.9567 13.5048 15.6068 10.3226 20.0002 10.3226C24.3936 10.3226 28.0438 13.5048 28.7715 17.69C28.2238 17.4336 27.6126 17.2903 26.968 17.2903C24.6163 17.2903 22.7099 19.1967 22.7099 21.5484V24.6452C22.7099 26.9968 24.6163 28.9032 26.968 28.9032C27.2109 28.9032 27.4491 28.8829 27.681 28.8438C27.1226 29.3205 26.4114 29.6238 25.6299 29.6711C25.5337 29.6769 25.411 29.6774 25.0623 29.6774H17.8988C17.2575 29.6774 16.7375 30.1973 16.7375 30.8387C16.7375 31.4801 17.2575 32 17.8988 32L25.1036 32C25.3956 32 25.5944 32 25.7702 31.9894C28.7009 31.8121 31.0382 29.4749 31.2154 26.5441C31.2261 26.3683 31.226 26.1696 31.226 25.8776L31.226 24.6452V21.5484V19.2258C31.226 13.026 26.2001 8 20.0002 8ZM13.0325 19.6129C11.9635 19.6129 11.097 20.4794 11.097 21.5484V24.6452C11.097 25.7141 11.9635 26.5806 13.0325 26.5806C14.1014 26.5806 14.968 25.7141 14.968 24.6452V21.5484C14.968 20.4794 14.1014 19.6129 13.0325 19.6129ZM26.968 19.6129C25.899 19.6129 25.0325 20.4794 25.0325 21.5484V24.6452C25.0325 25.7141 25.899 26.5806 26.968 26.5806C28.0369 26.5806 28.9034 25.7141 28.9034 24.6452V21.5484C28.9034 20.4794 28.0369 19.6129 26.968 19.6129Z" fill="#FF0032"/></svg>