<svg xmlns="http://www.w3.org/2000/svg" width="40" height="40" viewBox="0 0 40 40" fill="none">
<path fill-rule="evenodd" clip-rule="evenodd" d="M17.7174 8H22.2826C22.604 7.99998 22.8993 7.99996 23.1473 8.01688C23.4138 8.03507 23.7068 8.07648 24.0045 8.19982C24.6477 8.46624 25.1588 8.97726 25.4252 9.62046C25.5485 9.91821 25.5899 10.2112 25.6081 10.4777C25.6226 10.69 25.6247 10.9369 25.625 11.2051C28.3365 13.02 30.125 16.1131 30.125 19.625C30.125 22.9015 28.5682 25.8134 26.1576 27.6629C26.7677 28.5988 27.125 29.6964 27.125 30.875C27.125 31.4963 26.6213 32 26 32C25.3787 32 24.875 31.4963 24.875 30.875C24.875 30.0725 24.6035 29.3154 24.1151 28.667C23.9954 28.508 23.8626 28.3555 23.7174 28.2107C22.8367 27.3324 21.5123 26.75 20 26.75C18.4877 26.75 17.1633 27.3324 16.2826 28.2107C16.1374 28.3555 16.0045 28.508 15.8849 28.667C15.3965 29.3154 15.125 30.0725 15.125 30.875C15.125 31.4963 14.6213 32 14 32C13.3787 32 12.875 31.4963 12.875 30.875C12.875 29.6964 13.2323 28.5988 13.8424 27.6629C11.4318 25.8134 9.875 22.9015 9.875 19.625C9.875 16.1131 11.6635 13.02 14.375 11.2051C14.3753 10.9369 14.3774 10.6899 14.3919 10.4777C14.4101 10.2112 14.4515 9.91821 14.5748 9.62046C14.8412 8.97726 15.3523 8.46624 15.9955 8.19982C16.2932 8.07648 16.5862 8.03507 16.8527 8.01688C17.1007 7.99996 17.3959 7.99998 17.7174 8ZM14.8658 13.6534C13.1864 15.0986 12.125 17.2383 12.125 19.625C12.125 22.2517 13.4105 24.5792 15.3907 26.011C16.6439 25.06 18.2585 24.5 20 24.5C21.7415 24.5 23.3561 25.06 24.6093 26.011C26.5895 24.5792 27.875 22.2517 27.875 19.625C27.875 17.2383 26.8136 15.0986 25.1342 13.6534C24.851 14.0487 24.4611 14.3611 24.0045 14.5502C23.7068 14.6735 23.4138 14.7149 23.1473 14.7331C22.8993 14.75 22.6041 14.75 22.2826 14.75H17.7174C17.3959 14.75 17.1007 14.75 16.8527 14.7331C16.5862 14.7149 16.2932 14.6735 15.9955 14.5502C15.5389 14.3611 15.149 14.0487 14.8658 13.6534ZM16.852 10.2805C16.7637 10.3184 16.6934 10.3887 16.6555 10.477C16.6527 10.488 16.6435 10.5306 16.6367 10.6308C16.6256 10.7929 16.625 11.0102 16.625 11.375C16.625 11.5475 16.625 11.6896 16.6266 11.8141C16.629 12.0114 16.6352 12.1282 16.6446 12.2068C16.6492 12.2461 16.6537 12.2661 16.6555 12.2732C16.6935 12.3614 16.7638 12.4317 16.852 12.4695C16.863 12.4723 16.9056 12.4815 17.0058 12.4883C17.1679 12.4994 17.3852 12.5 17.75 12.5H22.25C22.6148 12.5 22.8321 12.4994 22.9942 12.4883C23.0944 12.4815 23.137 12.4724 23.148 12.4695C23.2362 12.4317 23.3065 12.3614 23.3445 12.2732C23.3463 12.2661 23.3508 12.2461 23.3554 12.2068C23.3648 12.1282 23.371 12.0114 23.3734 11.8141C23.375 11.6896 23.375 11.5475 23.375 11.375C23.375 11.0102 23.3744 10.7929 23.3633 10.6308C23.3565 10.5306 23.3473 10.488 23.3445 10.477C23.3066 10.3887 23.2363 10.3184 23.148 10.2805C23.137 10.2777 23.0944 10.2685 22.9942 10.2617C22.8321 10.2506 22.6148 10.25 22.25 10.25H17.75C17.3852 10.25 17.1679 10.2506 17.0058 10.2617C16.9056 10.2685 16.863 10.2777 16.852 10.2805ZM23.3436 12.2763C23.3436 12.2763 23.3437 12.2758 23.344 12.2749ZM16.6564 12.2763C16.6564 12.2763 16.6563 12.2759 16.656 12.2751Z" fill="#FF0032"/>
</svg>