<svg xmlns="http://www.w3.org/2000/svg" width="40" height="40" viewBox="0 0 40 40" fill="none">
<path fill-rule="evenodd" clip-rule="evenodd" d="M16.8131 12.2872C15.943 13.3632 15.6 14.6895 15.6 15.6C15.6 16.2627 15.0627 16.8 14.4 16.8C12.9998 16.8 11.891 17.1593 11.1585 17.7459C10.4603 18.3051 9.99998 19.1499 9.99998 20.4C9.99998 21.75 11.1157 22.9268 12.3051 23.2394C12.946 23.4079 13.329 24.0641 13.1605 24.7051C12.992 25.3461 12.3358 25.7291 11.6949 25.5606C9.66309 25.0264 7.59998 23.0455 7.59998 20.4C7.59998 18.4748 8.35084 16.9197 9.65828 15.8726C10.6651 15.0663 11.9335 14.6143 13.2991 14.4605C13.4989 13.2723 14.0125 11.9336 14.9469 10.7781C16.2343 9.18597 18.277 8 21.2 8C26.0797 8 29.0246 12.1474 28.8935 16.5987C31.1999 17.249 32.4 19.3365 32.4 21.2C32.4 22.8884 31.2545 24.8236 29.1908 25.5346C28.5642 25.7504 27.8813 25.4174 27.6654 24.7908C27.4496 24.1642 27.7825 23.4813 28.4091 23.2654C29.4604 22.9033 30 21.9116 30 21.2C30 20.1317 29.2055 18.879 27.542 18.7986C27.2027 18.7822 26.8862 18.6227 26.6711 18.3597C26.456 18.0967 26.3625 17.7549 26.4137 17.419C26.9961 13.6011 24.6616 10.4 21.2 10.4C19.0029 10.4 17.6456 11.2576 16.8131 12.2872Z" fill="#FF0032"/>
<path fill-rule="evenodd" clip-rule="evenodd" d="M19.1515 18.7515C19.6201 18.2828 20.3799 18.2828 20.8485 18.7515L24.0485 21.9515C24.5171 22.4201 24.5171 23.1799 24.0485 23.6485C23.5799 24.1172 22.8201 24.1172 22.3515 23.6485L21.2 22.4971V27.9029L22.3515 26.7515C22.8201 26.2828 23.5799 26.2828 24.0485 26.7515C24.5171 27.2201 24.5171 27.9799 24.0485 28.4485L20.8485 31.6485C20.3799 32.1172 19.6201 32.1172 19.1515 31.6485L15.9514 28.4485C15.4828 27.9799 15.4828 27.2201 15.9514 26.7515C16.4201 26.2828 17.1799 26.2828 17.6485 26.7515L18.8 27.9029V22.4971L17.6485 23.6485C17.1799 24.1172 16.4201 24.1172 15.9514 23.6485C15.4828 23.1799 15.4828 22.4201 15.9514 21.9515L19.1515 18.7515Z" fill="#FF0032"/>
</svg>