<svg xmlns="http://www.w3.org/2000/svg" width="40" height="40" viewBox="0 0 40 40" fill="none">
<path fill-rule="evenodd" clip-rule="evenodd" d="M16.9159 12.1489C16.0739 13.1902 15.7419 14.4737 15.7419 15.3548C15.7419 15.9962 15.222 16.5161 14.5806 16.5161C13.2257 16.5161 12.1526 16.8639 11.4437 17.4315C10.7681 17.9726 10.3226 18.7902 10.3226 20C10.3226 20.8454 10.7639 21.625 11.4385 22.1689C11.9379 22.5715 12.0163 23.3025 11.6137 23.8018C11.2112 24.3012 10.4801 24.3796 9.98081 23.9771C8.87369 23.0845 8 21.6827 8 20C8 18.1369 8.72664 16.6319 9.99191 15.6187C10.9663 14.8383 12.1937 14.4009 13.5153 14.2521C13.7087 13.1022 14.2057 11.8067 15.1099 10.6885C16.3558 9.14771 18.3326 8 21.1613 8C25.8893 8 28.7403 12.0232 28.6062 16.3367C29.4452 16.5725 30.1765 16.9905 30.7501 17.579C31.5778 18.4283 32 19.555 32 20.7742C32 23.1386 30.3197 24.4616 28.9056 24.965C28.3014 25.1801 27.6372 24.8646 27.4221 24.2604C27.207 23.6562 27.5225 22.992 28.1267 22.7769C28.9793 22.4734 29.6774 21.8189 29.6774 20.7742C29.6774 20.1031 29.4533 19.5761 29.0868 19.2001C28.7171 18.8207 28.1253 18.5174 27.2617 18.4479C26.9404 18.422 26.6443 18.2638 26.4443 18.0111C26.2442 17.7583 26.1582 17.4338 26.2068 17.1152C26.7704 13.4204 24.5112 10.3226 21.1613 10.3226C19.0351 10.3226 17.7216 11.1525 16.9159 12.1489Z" fill="#FF0032"/>
<path fill-rule="evenodd" clip-rule="evenodd" d="M19.5365 18.8387C19.5618 18.8387 19.5873 18.8387 19.6129 18.8387C19.6385 18.8387 19.664 18.8387 19.6893 18.8387C20.7188 18.8386 21.6058 18.8386 22.3161 18.9341C23.0774 19.0364 23.8071 19.2672 24.3989 19.8591C24.9908 20.451 25.2216 21.1807 25.324 21.9419C25.4195 22.6522 25.4194 23.5392 25.4194 24.5687V26.27C25.4194 27.2995 25.4195 28.1865 25.324 28.8968C25.2216 29.658 24.9908 30.3877 24.3989 30.9796C23.8071 31.5715 23.0774 31.8023 22.3161 31.9046C21.6058 32.0001 20.7188 32.0001 19.6893 32H19.5365C18.507 32.0001 17.62 32.0001 16.9097 31.9046C16.1484 31.8023 15.4187 31.5715 14.8269 30.9796C14.235 30.3877 14.0042 29.658 13.9018 28.8968C13.8063 28.1865 13.8064 27.2995 13.8064 26.27C13.8064 26.2446 13.8064 26.2191 13.8064 26.1935V24.6452C13.8064 24.6196 13.8064 24.5941 13.8064 24.5687C13.8064 23.5392 13.8063 22.6522 13.9018 21.9419C14.0042 21.1807 14.235 20.451 14.8269 19.8591C15.4187 19.2672 16.1484 19.0364 16.9097 18.9341C17.62 18.8386 18.507 18.8386 19.5365 18.8387ZM17.2191 21.236C16.7154 21.3037 16.5576 21.413 16.4692 21.5014C16.3808 21.5898 16.2714 21.7477 16.2037 22.2514C16.1315 22.7885 16.129 23.5175 16.129 24.6452V26.1935C16.129 27.3212 16.1315 28.0502 16.2037 28.5873C16.2714 29.091 16.3808 29.2489 16.4692 29.3373C16.5576 29.4257 16.7154 29.535 17.2191 29.6027C17.7562 29.6749 18.4852 29.6774 19.6129 29.6774C20.7406 29.6774 21.4696 29.6749 22.0067 29.6027C22.5104 29.535 22.6682 29.4257 22.7566 29.3373C22.845 29.2489 22.9544 29.091 23.0221 28.5873C23.0943 28.0502 23.0968 27.3212 23.0968 26.1935V24.6452C23.0968 23.5175 23.0943 22.7885 23.0221 22.2514C22.9544 21.7477 22.845 21.5898 22.7566 21.5014C22.6682 21.413 22.5104 21.3037 22.0067 21.236C21.4696 21.1638 20.7406 21.1613 19.6129 21.1613C18.4852 21.1613 17.7562 21.1638 17.2191 21.236Z" fill="#FF0032"/>
<path fill-rule="evenodd" clip-rule="evenodd" d="M21.5484 23.871C21.5484 24.5123 21.0285 25.0323 20.3871 25.0323H18.8387C18.1974 25.0323 17.6774 24.5123 17.6774 23.871C17.6774 23.2296 18.1974 22.7097 18.8387 22.7097H20.3871C21.0285 22.7097 21.5484 23.2296 21.5484 23.871Z" fill="#FF0032"/>
</svg>