<svg xmlns="http://www.w3.org/2000/svg" width="40" height="40" viewBox="0 0 40 40" fill="none">
<path fill-rule="evenodd" clip-rule="evenodd" d="M17.4415 8H22.5585C24.4368 7.99998 25.9513 7.99996 27.1591 8.13613C28.408 8.27692 29.4818 8.57633 30.4029 9.28309C30.8334 9.61342 31.2187 9.99875 31.549 10.4292C32.2558 11.3503 32.5552 12.4241 32.696 13.673C32.8322 14.8809 32.8322 16.3953 32.8321 18.2737V18.3485C32.8321 19.0343 32.2761 19.5903 31.5903 19.5903C30.9045 19.5903 30.3485 19.0343 30.3485 18.3485C30.3485 16.3778 30.3466 15.0036 30.228 13.9512C30.1122 12.9238 29.8983 12.3578 29.5786 11.9412C29.3804 11.6829 29.1492 11.4517 28.891 11.2535C28.4743 10.9338 27.9083 10.72 26.8809 10.6041C25.8285 10.4855 24.4544 10.4836 22.4836 10.4836H17.5164C15.5456 10.4836 14.1715 10.4855 13.1191 10.6041C12.0917 10.72 11.5257 10.9338 11.1091 11.2535C10.8508 11.4517 10.6196 11.6829 10.4214 11.9412C10.1017 12.3578 9.88783 12.9238 9.77201 13.9512C9.65336 15.0036 9.65152 16.3778 9.65152 18.3485C9.65152 20.3192 9.65336 21.6933 9.77201 22.7458C9.88783 23.7732 10.1017 24.3391 10.4214 24.7558C10.6196 25.0141 10.8508 25.2453 11.1091 25.4435C11.5257 25.7632 12.0917 25.977 13.1191 26.0929C14.1715 26.2115 15.5456 26.2133 17.5164 26.2133H18.3442C19.0301 26.2133 19.5861 26.7693 19.5861 27.4552C19.5861 28.141 19.0301 28.697 18.3442 28.697H17.4415C15.5632 28.697 14.0487 28.697 12.8409 28.5609C11.592 28.4201 10.5182 28.1207 9.59712 27.4139C9.16662 27.0836 8.78129 26.6982 8.45097 26.2677C7.74421 25.3467 7.4448 24.2729 7.304 23.024C7.16783 21.8161 7.16785 20.3016 7.16788 18.4233V18.2737C7.16785 16.3954 7.16783 14.8809 7.304 13.673C7.4448 12.4241 7.74421 11.3503 8.45097 10.4292C8.78129 9.99875 9.16663 9.61342 9.59711 9.28309C10.5182 8.57633 11.592 8.27692 12.8409 8.13613C14.0487 7.99996 15.5632 7.99998 17.4415 8ZM12.963 15.037C12.963 14.3511 13.519 13.7952 14.2049 13.7952H25.7952C26.481 13.7952 27.037 14.3511 27.037 15.037C27.037 15.7228 26.481 16.2788 25.7952 16.2788H14.2049C13.519 16.2788 12.963 15.7228 12.963 15.037ZM12.963 20.0042C12.963 19.3184 13.519 18.7624 14.2049 18.7624H25.7952C26.481 18.7624 27.037 19.3184 27.037 20.0042C27.037 20.6901 26.481 21.2461 25.7952 21.2461H14.2049C13.519 21.2461 12.963 20.6901 12.963 20.0042ZM31.5903 22.0739C32.2761 22.0739 32.8321 22.6299 32.8321 23.3158V32L27.4509 29.1551L22.0697 32V24.6367C22.0697 23.9509 22.6257 23.3949 23.3115 23.3949C23.9974 23.3949 24.5533 23.9509 24.5533 24.6367V27.8776L27.4509 26.3457L30.3485 27.8776V23.3158C30.3485 22.6299 30.9045 22.0739 31.5903 22.0739Z" fill="#FF0032"/>
</svg>