<svg xmlns="http://www.w3.org/2000/svg" width="40" height="40" viewBox="0 0 40 40" fill="none">
<path fill-rule="evenodd" clip-rule="evenodd" d="M13.4194 30.4512C13.4194 29.8098 13.9393 29.2899 14.5807 29.2899H25.4193C26.0607 29.2899 26.5806 29.8098 26.5806 30.4512C26.5806 31.0925 26.0607 31.6125 25.4193 31.6125H14.5807C13.9393 31.6125 13.4194 31.0925 13.4194 30.4512Z" fill="#FF0032"/>
<path fill-rule="evenodd" clip-rule="evenodd" d="M17.456 8.38675C17.5288 8.38677 17.6026 8.38678 17.6774 8.38678H22.3226C22.3974 8.38678 22.4712 8.38677 22.544 8.38675C24.492 8.38632 25.7337 8.38604 26.7801 8.70348C29.1307 9.41653 30.9702 11.256 31.6832 13.6066C32.0007 14.653 32.0004 15.8947 32 17.8427C32 17.9155 31.9999 17.9893 31.9999 18.0641C31.9999 18.139 32 18.2128 32 18.2856C32.0004 20.2336 32.0007 21.4753 31.6832 22.5217C30.9702 24.8723 29.1307 26.7118 26.7801 27.4248C25.7337 27.7423 24.492 27.742 22.544 27.7416C22.4712 27.7415 22.3974 27.7415 22.3226 27.7415H17.6774C17.6026 27.7415 17.5288 27.7415 17.456 27.7416C15.508 27.742 14.2663 27.7423 13.2199 27.4248C10.8693 26.7118 9.02981 24.8723 8.31676 22.5217C7.99932 21.4753 7.9996 20.2336 8.00003 18.2856C8.00005 18.2128 8.00006 18.139 8.00006 18.0641C8.00006 17.9893 8.00005 17.9155 8.00003 17.8427C7.9996 15.8947 7.99932 14.653 8.31676 13.6066C9.02981 11.256 10.8693 9.41653 13.2199 8.70348C14.2663 8.38604 15.508 8.38632 17.456 8.38675ZM17.6774 10.7094C15.4321 10.7094 14.5669 10.722 13.8941 10.926C12.2858 11.4139 11.0272 12.6725 10.5393 14.2808C10.3352 14.9536 10.3226 15.8188 10.3226 18.0641C10.3226 20.3095 10.3352 21.1747 10.5393 21.8475C11.0272 23.4558 12.2858 24.7144 13.8941 25.2023C14.5669 25.4063 15.4321 25.4189 17.6774 25.4189H22.3226C24.5679 25.4189 25.4332 25.4063 26.1059 25.2023C27.7142 24.7144 28.9728 23.4558 29.4607 21.8475C29.6648 21.1747 29.6774 20.3095 29.6774 18.0641C29.6774 15.8188 29.6648 14.9536 29.4607 14.2808C28.9728 12.6725 27.7142 11.4139 26.1059 10.926C25.4332 10.722 24.5679 10.7094 22.3226 10.7094H17.6774Z" fill="#FF0032"/>
<path fill-rule="evenodd" clip-rule="evenodd" d="M25.4663 14.9204C25.9198 15.3739 25.9198 16.1092 25.4663 16.5627L20.047 21.9821C19.5935 22.4356 18.8582 22.4356 18.4047 21.9821L15.3079 18.8853C14.8544 18.4318 14.8544 17.6965 15.3079 17.243C15.7614 16.7895 16.4967 16.7895 16.9502 17.243L19.2258 19.5186L23.824 14.9204C24.2775 14.4669 25.0128 14.4669 25.4663 14.9204Z" fill="#FF0032"/>
</svg>