<svg xmlns="http://www.w3.org/2000/svg" width="40" height="40" viewBox="0 0 40 40" fill="none">
<path fill-rule="evenodd" clip-rule="evenodd" d="M20.6955 8L23.7931 8C27.7734 8 31 11.2929 31 15.3548C31 16.4238 30.1509 17.2903 29.1034 17.2903H24.5517C24.5344 17.2903 24.517 17.2903 24.4995 17.2903C24.1883 17.2905 23.8517 17.2906 23.5677 17.2516C23.2349 17.206 22.8098 17.0885 22.452 16.7234C22.0943 16.3583 21.9792 15.9245 21.9345 15.5849C21.8963 15.295 21.8964 14.9516 21.8965 14.634C21.8965 14.6161 21.8966 14.5983 21.8966 14.5806V10.3226H20.7586C18.604 10.3226 17.0737 10.324 15.8879 10.4471C14.7211 10.5682 14.0146 10.7975 13.4674 11.1707C12.9289 11.5378 12.4667 12.0096 12.1069 12.5591C11.7412 13.1175 11.5166 13.8385 11.3979 15.0293C11.2772 16.2395 11.2759 17.8012 11.2759 20V20.7742C11.2759 22.6016 11.2768 23.8995 11.3613 24.9136C11.4447 25.9133 11.6029 26.5301 11.8581 27.0174C12.3178 27.8951 13.0223 28.614 13.8824 29.0832C14.3598 29.3436 14.9643 29.5052 15.9439 29.5902C16.9376 29.6764 18.2093 29.6774 20 29.6774C21.7907 29.6774 23.0624 29.6764 24.0561 29.5902C25.0357 29.5052 25.6402 29.3436 26.1176 29.0832C26.9777 28.614 27.6821 27.8951 28.1419 27.0174C28.3971 26.5301 28.5553 25.9133 28.6387 24.9136C28.7232 23.8995 28.7241 22.6016 28.7241 20.7742C28.7241 20.1328 29.2336 19.6129 29.8621 19.6129C30.4905 19.6129 31 20.1328 31 20.7742V20.8275C31 22.5898 31 23.9863 30.9063 25.1104C30.8105 26.2602 30.6105 27.2312 30.149 28.1122C29.4771 29.3951 28.4475 30.4458 27.1904 31.1315C26.3271 31.6025 25.3757 31.8066 24.249 31.9044C23.1475 32 21.7791 32 20.0522 32H19.9478C18.2209 32 16.8525 32 15.751 31.9044C14.6243 31.8066 13.6729 31.6025 12.8096 31.1315C11.5525 30.4458 10.5229 29.3951 9.85098 28.1122C9.38954 27.2312 9.1895 26.2602 9.09367 25.1104C8.99998 23.9863 8.99999 22.5898 9 20.8275L9 19.9356C8.99999 17.8155 8.99998 16.1357 9.13369 14.7942C9.2707 13.4198 9.55742 12.2724 10.2146 11.2687C10.7404 10.4656 11.416 9.77611 12.203 9.23951C13.1865 8.56887 14.3108 8.27625 15.6576 8.13644C16.972 7.99998 18.6181 7.99999 20.6955 8ZM24.1724 10.3372V14.5806C24.1724 14.7341 24.1725 14.8584 24.1742 14.966C24.2795 14.9677 24.4014 14.9677 24.5517 14.9677H28.7098C28.5256 12.4971 26.5933 10.5252 24.1724 10.3372ZM25.3564 21.5953L20.046 27.0147C19.6016 27.4682 18.8811 27.4682 18.4367 27.0147L15.4023 23.9179C14.9579 23.4644 14.9579 22.7291 15.4023 22.2756C15.8466 21.8221 16.5671 21.8221 17.0115 22.2756L19.2414 24.5512L23.7471 19.953C24.1915 19.4995 24.912 19.4995 25.3564 19.953C25.8008 20.4065 25.8008 21.1418 25.3564 21.5953Z" fill="#FF0032"/>
</svg>