<svg xmlns="http://www.w3.org/2000/svg" width="40" height="40" viewBox="0 0 40 40" fill="none">
<path fill-rule="evenodd" clip-rule="evenodd" d="M21.0838 10.3225C18.4336 10.3225 16.2408 12.2474 15.8276 14.7683C15.7356 15.3297 15.2505 15.7417 14.6816 15.7417H14.5304C12.1685 15.7417 10.3229 17.5946 10.3229 19.798C10.3229 20.915 10.7724 21.9112 11.5254 22.6539C11.982 23.1043 11.9871 23.8395 11.5367 24.2962C11.0863 24.7528 10.3511 24.7578 9.89448 24.3075C8.72114 23.1502 8.00034 21.567 8.00034 19.798C8.00034 16.516 10.5256 13.8413 13.7482 13.4646C14.6848 10.3026 17.6129 8 21.0838 8C25.3015 8 28.7482 11.4156 28.7482 15.6643C28.7482 15.7272 28.7475 15.7895 28.7463 15.8513C30.6387 16.4949 31.9997 18.3 31.9997 20.403C31.9997 21.2777 31.716 22.1403 31.3002 22.8871C30.9883 23.4474 30.2811 23.6488 29.7207 23.3368C29.1604 23.0248 28.959 22.3177 29.271 21.7573C29.5466 21.2623 29.6772 20.7874 29.6772 20.403C29.6772 19.2539 28.8865 18.2744 27.8304 17.9997C27.7089 17.9697 27.577 17.9519 27.3672 17.9256C27.06 17.8872 26.7808 17.7277 26.5917 17.4825C26.4026 17.2373 26.3193 16.9268 26.3602 16.6199C26.4044 16.2886 26.4256 15.9871 26.4256 15.6643C26.4256 12.7042 24.0246 10.3225 21.0838 10.3225Z" fill="#FF0032"/>
<path d="M15.7055 21.9698C16.1343 21.227 17.2065 21.227 17.6354 21.9698L18.8554 24.0831C19.2843 24.8259 18.7482 25.7544 17.8905 25.7544H15.4503C14.5926 25.7544 14.0566 24.8259 14.4854 24.0831L15.7055 21.9698Z" fill="#FF0032"/>
<path d="M17.6347 30.0455C17.2058 30.7883 16.1337 30.7883 15.7048 30.0455L14.4847 27.9321C14.0559 27.1893 14.592 26.2608 15.4496 26.2608H17.8898C18.7475 26.2608 19.2836 27.1893 18.8547 27.9321L17.6347 30.0455Z" fill="#FF0032"/>
<path d="M22.9791 21.9697C23.408 21.2269 24.4801 21.2269 24.909 21.9697L26.1291 24.083C26.5579 24.8258 26.0218 25.7543 25.1641 25.7543H22.724C21.8663 25.7543 21.3302 24.8258 21.759 24.083L22.9791 21.9697Z" fill="#FF0032"/>
<path d="M24.9095 30.0455C24.4806 30.7883 23.4085 30.7883 22.9796 30.0455L21.7595 27.9321C21.3307 27.1893 21.8668 26.2609 22.7244 26.2609H25.1646C26.0223 26.2609 26.5584 27.1893 26.1295 27.9321L24.9095 30.0455Z" fill="#FF0032"/>
<path d="M21.2721 23.9385C20.8433 24.6813 19.7711 24.6813 19.3423 23.9385L18.1222 21.8252C17.6933 21.0824 18.2294 20.1539 19.0871 20.1539H21.5273C22.385 20.1539 22.921 21.0824 22.4922 21.8252L21.2721 23.9385Z" fill="#FF0032"/>
<path d="M19.3429 28.2154C19.7717 27.4726 20.8439 27.4726 21.2727 28.2154L22.4928 30.3287C22.9216 31.0715 22.3856 32 21.5279 32H19.0877C18.23 32 17.6939 31.0715 18.1228 30.3287L19.3429 28.2154Z" fill="#FF0032"/>
</svg>