<svg width="24" height="24" data-v-7fc0e16c="" viewBox="0 0 24 24" fill="none" xmlns="http://www.w3.org/2000/svg"><path fill-rule="evenodd" clip-rule="evenodd" d="M12.0004 4.00037C10.4505 4.00037 9.098 4.06801 7.94513 4.1681C5.92078 4.34386 4.90861 4.43174 3.61924 5.72553C2.32988 7.01932 2.24898 7.9896 2.08718 9.93016C2.03307 10.5792 2 11.2733 2 12.0004C2 12.7276 2.03307 13.4217 2.08719 14.0707C2.24899 16.0112 2.32989 16.9815 3.61924 18.2752C4.90858 19.569 5.92071 19.6569 7.94497 19.8327C9.09787 19.9328 10.4504 20.0004 12.0004 20.0004C13.5498 20.0004 14.902 19.9328 16.0547 19.8328C18.0798 19.657 19.0924 19.5691 20.3818 18.2751C21.6713 16.9811 21.7521 16.0104 21.9137 14.0689C21.9677 13.4204 22.0007 12.7269 22.0007 12.0004C22.0007 11.274 21.9677 10.5806 21.9137 9.93207C21.7521 7.99047 21.6713 7.01968 20.3818 5.72566C19.0924 4.43165 18.0797 4.34376 16.0545 4.168C14.9018 4.06796 13.5497 4.00037 12.0004 4.00037ZM8.11812 6.16061C9.21399 6.06546 10.5087 6.00037 12.0004 6.00037C13.4915 6.00037 14.7859 6.06541 15.8815 6.16051C16.9606 6.25415 17.484 6.30904 17.9051 6.43879C18.2175 6.53505 18.5177 6.68838 18.9651 7.13739C19.253 7.42627 19.4186 7.65048 19.5242 7.84882C19.3039 8.0147 19.0415 8.20031 18.7067 8.43671C18.2276 8.77504 17.711 9.11485 17.1703 9.43439C16.6894 9.71852 16.1773 9.99378 15.6594 10.2542C13.6929 11.2431 13.1252 11.4977 12.0002 11.4977C10.8752 11.4977 10.3075 11.2431 8.34102 10.2542C7.82308 9.99378 7.31101 9.71852 6.83017 9.43439C6.28941 9.11485 5.77285 8.77504 5.29373 8.43671C4.95912 8.20042 4.69681 8.01488 4.47656 7.84907C4.58214 7.6507 4.74776 7.42642 5.03587 7.13732C5.48334 6.68832 5.78352 6.53504 6.09566 6.43883C6.51647 6.30913 7.03954 6.25425 8.11812 6.16061ZM4.08564 10.032C4.08387 10.0532 4.08207 10.0746 4.08026 10.0963C4.03033 10.6952 4 11.3336 4 12.0004C4 12.6672 4.03034 13.3056 4.08027 13.9045C4.16673 14.9414 4.21714 15.4269 4.33978 15.8204C4.42957 16.1084 4.57812 16.4041 5.03587 16.8635C5.48334 17.3125 5.78351 17.4657 6.09563 17.5619C6.51642 17.6916 7.03944 17.7465 8.11799 17.8402C9.21388 17.9353 10.5087 18.0004 12.0004 18.0004C13.4916 18.0004 14.786 17.9354 15.8817 17.8403C16.9607 17.7466 17.4841 17.6917 17.9051 17.562C18.2175 17.4657 18.5177 17.3124 18.9651 16.8634C19.4228 16.4041 19.5714 16.1083 19.6612 15.82C19.7839 15.4262 19.8343 14.9403 19.9206 13.9029C19.9704 13.3045 20.0007 12.6666 20.0007 12.0004C20.0007 11.3343 19.9704 10.6964 19.9206 10.098C19.9188 10.0757 19.9169 10.0536 19.9151 10.0318L19.8604 10.0704C19.3442 10.4349 18.782 10.8051 18.1877 11.1562C17.66 11.468 17.1071 11.7649 16.5579 12.041C14.6267 13.0122 13.6612 13.4977 12.0002 13.4977C10.3393 13.4977 9.37368 13.0122 7.44249 12.041C6.89335 11.7649 6.34038 11.468 5.81272 11.1562C5.21843 10.8051 4.65626 10.4349 4.14007 10.0704L4.08564 10.032Z" fill="currentColor"></path></svg>