<svg xmlns="http://www.w3.org/2000/svg" width="40" height="40" viewBox="0 0 40 40" fill="none">
<path fill-rule="evenodd" clip-rule="evenodd" d="M23.2235 10.7608C21.1182 10.1765 18.8814 10.1765 16.7763 10.7608C14.7936 11.3111 13.1483 12.0322 11.2384 13.2957C11.1648 13.3444 11.0968 13.4481 11.0968 13.5908V21.4163C11.0969 21.4191 11.1048 21.5295 11.1948 21.7734C11.2798 22.0039 11.417 22.2972 11.6148 22.6421C12.0098 23.3311 12.6139 24.17 13.4206 25.0468C14.9624 26.7228 17.1905 28.4801 19.9999 29.5955C22.8092 28.4801 25.0374 26.7228 26.5793 25.0468C27.3859 24.17 27.9901 23.3311 28.3851 22.6421C28.583 22.2972 28.7202 22.0039 28.8052 21.7734C28.8951 21.5296 28.903 21.4192 28.9032 21.4163V13.5908C28.9032 13.4481 28.8352 13.3444 28.7615 13.2957C26.8517 12.0322 25.2062 11.3111 23.2235 10.7608ZM16.1551 8.5228C18.6667 7.82573 21.333 7.82574 23.8446 8.52278C26.0558 9.13645 27.9249 9.95735 30.0431 11.3587C30.8059 11.8634 31.2258 12.7169 31.2258 13.5908V21.4163C31.2258 21.8091 31.1181 22.2143 30.9843 22.5773C30.8441 22.9573 30.6454 23.3694 30.3999 23.7975C29.9086 24.6543 29.1974 25.6313 28.2886 26.6193C26.4719 28.594 23.8066 30.6759 20.4007 31.9287C20.1419 32.0238 19.8578 32.0238 19.599 31.9287C16.1931 30.6759 13.5279 28.594 11.7113 26.6193C10.8024 25.6313 10.0912 24.6543 9.59993 23.7974C9.35452 23.3694 9.15586 22.9572 9.0157 22.5773C8.8818 22.2143 8.77417 21.809 8.77417 21.4163V13.5908C8.77417 12.7169 9.19402 11.8634 9.95691 11.3587C12.075 9.95737 13.9441 9.13646 16.1551 8.5228Z" fill="#FF0032"/>
<path fill-rule="evenodd" clip-rule="evenodd" d="M20.7926 15.5321C21.3182 15.8997 21.4462 16.6237 21.0785 17.1493L19.6488 19.1934H22.0645C22.4974 19.1934 22.8944 19.4343 23.0944 19.8182C23.2945 20.2022 23.2642 20.6656 23.0161 21.0203L20.3085 24.8913C19.9408 25.4167 19.2168 25.5448 18.6912 25.1772C18.1657 24.8096 18.0377 24.0855 18.4053 23.56L19.8351 21.516H17.4194C16.9864 21.516 16.5894 21.2751 16.3894 20.8912C16.1894 20.5072 16.2196 20.0439 16.4677 19.6891L19.1754 15.818C19.543 15.2925 20.267 15.1644 20.7926 15.5321Z" fill="#FF0032"/>
</svg>