<svg xmlns="http://www.w3.org/2000/svg" width="40" height="40" viewBox="0 0 40 40" fill="none">
<path fill-rule="evenodd" clip-rule="evenodd" d="M11.871 16.5158C11.871 12.0262 15.5105 8.38672 20 8.38672C24.4895 8.38672 28.129 12.0262 28.129 16.5158L28.1289 16.5575C30.4516 17.9885 32 20.5552 32 23.4835C32 27.973 28.3605 31.6125 23.871 31.6125C22.4695 31.6125 21.1509 31.2579 20 30.6335C18.8491 31.2579 17.5305 31.6125 16.129 31.6125C11.6395 31.6125 8 27.973 8 23.4835C8 20.5552 9.54838 17.9885 11.8711 16.5575L11.871 16.5158ZM16.129 29.2899C12.9222 29.2899 10.3226 26.6903 10.3226 23.4835C10.3226 21.7449 11.0867 20.1849 12.2973 19.1207C12.9094 20.9313 14.142 22.456 15.742 23.4418L15.7419 23.4835C15.7419 25.6183 16.5649 27.5609 17.9108 29.0115C17.3494 29.1923 16.7506 29.2899 16.129 29.2899ZM20 27.8114C19.0351 26.9478 18.3607 25.7662 18.1415 24.4314C18.7384 24.571 19.3606 24.6448 20 24.6448C20.6394 24.6448 21.2616 24.571 21.8585 24.4314C21.6393 25.7662 20.9649 26.9478 20 27.8114ZM16.129 17.677C15.5164 17.677 14.9259 17.7719 14.3715 17.9478C14.664 19.1012 15.3018 20.1169 16.1683 20.8785C16.5396 19.7802 17.1393 18.787 17.9108 17.9555C17.3494 17.7747 16.7506 17.677 16.129 17.677ZM25.7295 15.5679C25.1326 15.4283 24.5104 15.3545 23.871 15.3545C22.4695 15.3545 21.1509 15.7091 20 16.3335C18.8491 15.7091 17.5305 15.3545 16.129 15.3545C15.4896 15.3545 14.8674 15.4283 14.2705 15.5679C14.723 12.8119 17.116 10.7093 20 10.7093C22.884 10.7093 25.277 12.8119 25.7295 15.5679ZM20 22.3222C20.6126 22.3222 21.2031 22.2273 21.7576 22.0515C21.4694 20.9156 20.8465 19.9132 20 19.1555C19.1535 19.9132 18.5306 20.9156 18.2424 22.0515C18.7969 22.2273 19.3874 22.3222 20 22.3222ZM25.6285 17.9478C25.0741 17.7719 24.4836 17.677 23.871 17.677C23.2494 17.677 22.6506 17.7747 22.0892 17.9555C22.8607 18.787 23.4604 19.7801 23.8317 20.8785C24.6982 20.1169 25.336 19.1012 25.6285 17.9478ZM29.6774 23.4835C29.6774 26.6903 27.0778 29.2899 23.871 29.2899C23.2494 29.2899 22.6506 29.1923 22.0892 29.0114C23.4351 27.5609 24.2581 25.6183 24.2581 23.4835L24.258 23.4418C25.858 22.456 27.0906 20.9313 27.7027 19.1207C28.9133 20.1849 29.6774 21.7449 29.6774 23.4835Z" fill="#FF0032"/>
</svg>