<svg xmlns="http://www.w3.org/2000/svg" width="40" height="40" viewBox="0 0 40 40" fill="none"><path fill-rule="evenodd" clip-rule="evenodd" d="M10.3772 18.9656C10.3788 18.9658 10.3803 18.966 10.3818 18.9661C11.0623 19.0382 12.0136 19.1343 13.0959 19.2304C15.2702 19.4234 17.9373 19.6129 19.9997 19.6129C22.0621 19.6129 24.7293 19.4234 26.9038 19.2304C27.9862 19.1343 28.9375 19.0382 29.6181 18.9661C29.6196 18.966 29.6212 18.9658 29.6228 18.9656C29.2583 15.5357 27.102 12.6409 24.1078 11.2351C24.7114 12.6826 25.0322 14.5835 25.0322 16.9032C25.0322 17.5446 24.5123 18.0645 23.8709 18.0645C23.2296 18.0645 22.7097 17.5446 22.7097 16.9032C22.7097 14.3738 22.2896 12.6565 21.719 11.616C21.1661 10.6079 20.5395 10.3226 20 10.3226C19.4605 10.3226 18.8339 10.6079 18.281 11.616C17.7103 12.6565 17.2903 14.3738 17.2903 16.9032C17.2903 17.5446 16.7704 18.0645 16.129 18.0645C15.4876 18.0645 14.9677 17.5446 14.9677 16.9032C14.9677 14.5835 15.2886 12.6826 15.8921 11.2352C12.898 12.6409 10.7417 15.5357 10.3772 18.9656ZM20 8C13.3726 8 8 13.3726 8 20C8 26.6274 13.3726 32 20 32C26.6274 32 32 26.6274 32 20C32 13.3726 26.6274 8 20 8ZM23.5156 29.019C26.7335 27.7638 29.1144 24.8362 29.5903 21.3044C28.9282 21.3733 28.0697 21.4586 27.1092 21.5438C26.4521 21.6022 25.7441 21.6608 25.0161 21.7143C24.9297 24.2219 24.5003 26.5257 23.8214 28.2949C23.7259 28.5437 23.624 28.7857 23.5156 29.019ZM22.6861 21.8598C22.5896 24.0735 22.2027 26.0304 21.653 27.4627C21.3325 28.2979 20.9791 28.8955 20.6457 29.2641C20.3119 29.6329 20.0918 29.6774 20 29.6774C19.9082 29.6774 19.6881 29.6329 19.3543 29.2641C19.0208 28.8955 18.6675 28.2979 18.347 27.4627C17.7973 26.0304 17.4104 24.0736 17.3138 21.8598C18.2515 21.9065 19.1683 21.9355 19.9997 21.9355C20.8313 21.9355 21.7482 21.9065 22.6861 21.8598ZM14.9838 21.7143C15.0702 24.2219 15.4996 26.5257 16.1786 28.2949C16.2741 28.5437 16.376 28.7857 16.4844 29.019C13.2665 27.7638 10.8856 24.8362 10.4097 21.3044C11.0718 21.3734 11.9301 21.4586 12.8905 21.5438C13.5476 21.6022 14.2558 21.6608 14.9838 21.7143Z" fill="#FF0032"/></svg>