<svg xmlns="http://www.w3.org/2000/svg" width="40" height="40" viewBox="0 0 40 40" fill="none"><path fill-rule="evenodd" clip-rule="evenodd" d="M13.4191 30.4512C13.4191 29.8098 13.9391 29.2899 14.5804 29.2899H25.4191C26.0604 29.2899 26.5804 29.8098 26.5804 30.4512C26.5804 31.0925 26.0604 31.6125 25.4191 31.6125H14.5804C13.9391 31.6125 13.4191 31.0925 13.4191 30.4512Z" fill="#FF0032"/><path fill-rule="evenodd" clip-rule="evenodd" d="M17.4558 8.38675C17.5286 8.38677 17.6024 8.38678 17.6772 8.38678H22.3223C22.3971 8.38678 22.4709 8.38677 22.5438 8.38675C24.4918 8.38632 25.7334 8.38604 26.7799 8.70348C29.1305 9.41653 30.9699 11.256 31.683 13.6066C32.0004 14.653 32.0002 15.8947 31.9997 17.8427C31.9997 17.9155 31.9997 17.9893 31.9997 18.0641C31.9997 18.139 31.9997 18.2128 31.9997 18.2856C32.0002 20.2336 32.0004 21.4753 31.683 22.5217C30.9699 24.8723 29.1305 26.7118 26.7799 27.4248C25.7334 27.7423 24.4918 27.742 22.5437 27.7416C22.4709 27.7415 22.3971 27.7415 22.3223 27.7415H17.6772C17.6024 27.7415 17.5286 27.7415 17.4558 27.7416C15.5077 27.742 14.2661 27.7423 13.2196 27.4248C10.869 26.7118 9.02956 24.8723 8.31651 22.5217C7.99908 21.4753 7.99936 20.2336 7.99979 18.2856C7.9998 18.2128 7.99982 18.139 7.99982 18.0641C7.99982 17.9893 7.9998 17.9155 7.99979 17.8427C7.99936 15.8947 7.99908 14.653 8.31651 13.6066C9.02956 11.256 10.869 9.41653 13.2196 8.70348C14.2661 8.38604 15.5077 8.38632 17.4558 8.38675ZM17.6772 10.7094C15.4318 10.7094 14.5666 10.722 13.8938 10.926C12.2855 11.4139 11.0269 12.6725 10.5391 14.2808C10.335 14.9536 10.3224 15.8188 10.3224 18.0641C10.3224 20.3095 10.335 21.1747 10.5391 21.8475C11.0269 23.4558 12.2855 24.7144 13.8938 25.2023C14.5666 25.4063 15.4318 25.4189 17.6772 25.4189H22.3223C24.5677 25.4189 25.4329 25.4063 26.1057 25.2023C27.714 24.7144 28.9726 23.4558 29.4604 21.8475C29.6645 21.1747 29.6771 20.3095 29.6771 18.0641C29.6771 15.8188 29.6645 14.9536 29.4604 14.2808C28.9726 12.6725 27.714 11.4139 26.1057 10.926C25.4329 10.722 24.5677 10.7094 22.3223 10.7094H17.6772Z" fill="#FF0032"/><path fill-rule="evenodd" clip-rule="evenodd" d="M25.466 14.9204C25.9196 15.3739 25.9196 16.1092 25.466 16.5627L20.0467 21.9821C19.5932 22.4356 18.8579 22.4356 18.4044 21.9821L15.3077 18.8853C14.8541 18.4318 14.8541 17.6965 15.3077 17.243C15.7612 16.7895 16.4965 16.7895 16.95 17.243L19.2256 19.5186L23.8237 14.9204C24.2773 14.4669 25.0125 14.4669 25.466 14.9204Z" fill="#FF0032"/></svg>