<svg xmlns="http://www.w3.org/2000/svg" width="40" height="40" viewBox="0 0 40 40" fill="none">
<path fill-rule="evenodd" clip-rule="evenodd" d="M27.3151 25.0323C28.8519 25.0323 29.9115 26.2678 29.6344 27.9391C29.546 28.4723 29.2105 28.9048 28.7469 29.2296C28.5178 29.3902 28.2777 29.5086 28.0677 29.5847C27.9634 29.6224 27.8738 29.6471 27.8038 29.6617C27.7389 29.6752 27.7051 29.6771 27.7004 29.6774V29.6774L23.0803 29.6774C21.5743 29.6774 21.1616 28.8343 21.1616 28.5161C21.1616 28.1899 21.2976 27.871 21.605 27.6438C21.9177 27.4126 22.5458 27.1794 23.6851 27.343C24.2417 27.423 24.7756 27.0927 24.9525 26.559C25.1878 25.8493 25.9921 25.0323 27.3151 25.0323ZM31.9257 28.3189C32.4187 25.3451 30.3983 22.7097 27.3151 22.7097C25.3731 22.7097 23.9088 23.7182 23.148 24.9686C21.9746 24.9371 20.9826 25.2156 20.2244 25.776C19.2806 26.4737 18.839 27.5096 18.839 28.5161C18.839 30.5206 20.7363 32 23.0803 32H27.7001C28.3868 32 29.3083 31.6723 30.0798 31.1317C30.8867 30.5662 31.7061 29.6439 31.9257 28.3189Z" fill="#FF0032"/>
<path fill-rule="evenodd" clip-rule="evenodd" d="M8.00033 12.2581C8.00033 9.9064 9.90673 8 12.2584 8H19.3628C21.2114 8 22.71 9.49861 22.71 11.3472C22.71 11.9886 22.1901 12.5085 21.5487 12.5085C20.9074 12.5085 20.3874 11.9886 20.3874 11.3472C20.3874 10.7813 19.9287 10.3226 19.3628 10.3226H12.2584C11.1895 10.3226 10.3229 11.1891 10.3229 12.2581V19.3624C10.3229 19.9283 10.7817 20.3871 11.3476 20.3871C11.9889 20.3871 12.5089 20.907 12.5089 21.5484C12.5089 22.1897 11.9889 22.7097 11.3476 22.7097C9.49894 22.7097 8.00033 21.2111 8.00033 19.3624V12.2581Z" fill="#FF0032"/>
<path fill-rule="evenodd" clip-rule="evenodd" d="M13.4197 17.6774C13.4197 15.3258 15.3261 13.4194 17.6777 13.4194H23.8713C26.223 13.4194 28.1294 15.3258 28.1294 17.6774V20.3871C28.1294 21.0285 27.6094 21.5484 26.9681 21.5484C26.3267 21.5484 25.8068 21.0285 25.8068 20.3871V17.6774C25.8068 16.6085 24.9402 15.7419 23.8713 15.7419H17.6777C16.6088 15.7419 15.7423 16.6085 15.7423 17.6774V24.7818C15.7423 25.3477 16.201 25.8065 16.7669 25.8065C17.4083 25.8065 17.9282 26.3264 17.9282 26.9677C17.9282 27.6091 17.4083 28.129 16.7669 28.129C14.9183 28.129 13.4197 26.6304 13.4197 24.7818V17.6774Z" fill="#FF0032"/>
</svg>