<svg xmlns="http://www.w3.org/2000/svg" width="40" height="40" viewBox="0 0 40 40" fill="none">
<path fill-rule="evenodd" clip-rule="evenodd" d="M16.9159 12.9233C16.0739 13.9646 15.7419 15.2481 15.7419 16.1293C15.7419 16.7706 15.222 17.2905 14.5806 17.2905C13.2257 17.2905 12.1526 17.6383 11.4437 18.206C10.7681 18.747 10.3226 19.5647 10.3226 20.7744C10.3226 22.0809 11.4023 23.2197 12.5533 23.5223C13.1736 23.6853 13.5443 24.3203 13.3812 24.9406C13.2181 25.5609 12.5831 25.9316 11.9628 25.7685C9.99656 25.2516 8 23.3345 8 20.7744C8 18.9113 8.72664 17.4064 9.99191 16.3931C10.9663 15.6127 12.1937 15.1753 13.5153 15.0265C13.7087 13.8767 14.2057 12.5811 15.1099 11.4629C16.3558 9.92212 18.3326 8.77441 21.1613 8.77441C25.8836 8.77441 28.7335 12.7881 28.6067 17.0957C30.8387 17.725 32 19.7452 32 21.5486C32 23.1825 30.8915 25.0554 28.8944 25.7433C28.288 25.9522 27.6271 25.63 27.4182 25.0236C27.2093 24.4172 27.5315 23.7563 28.1379 23.5474C29.1553 23.1969 29.6774 22.2372 29.6774 21.5486C29.6774 20.5147 28.9086 19.3025 27.2988 19.2247C26.9704 19.2088 26.6641 19.0545 26.4559 18.8C26.2478 18.5455 26.1573 18.2146 26.2068 17.8896C26.7704 14.1948 24.5112 11.097 21.1613 11.097C19.0351 11.097 17.7216 11.9269 16.9159 12.9233Z" fill="#FF0032"/>
<path fill-rule="evenodd" clip-rule="evenodd" d="M23.685 21.4089C22.8212 21.2308 21.5898 21.1589 20.419 21.1616C19.2428 21.1642 18.0128 21.2426 17.1408 21.4056C16.2087 21.5798 15.5868 22.3389 15.4791 23.1874C15.3169 24.465 15.3142 26.0612 15.4669 27.3058C15.5835 28.2564 16.306 28.9713 17.2016 29.1461C17.5143 29.2071 17.8912 29.2712 18.2406 29.308C19.0006 29.3882 20.0589 29.4253 20.4488 29.4369L21.3142 30.7156C21.6737 31.2468 22.3957 31.3859 22.9269 31.0265C23.458 30.667 23.5972 29.945 23.2377 29.4139L23.1293 29.2537C23.2985 29.2235 23.4577 29.1909 23.6076 29.1571C24.4711 28.9621 25.1557 28.2627 25.2841 27.3548C25.4669 26.0628 25.4666 24.3929 25.2698 23.1018C25.1496 22.3134 24.5729 21.592 23.685 21.4089ZM20.6502 27.119L20.655 27.1191C21.6925 27.1324 22.4451 27.0311 23.0002 26.9126C23.1281 25.9153 23.1296 24.6408 23.0007 23.6441C22.3624 23.5392 21.4226 23.4819 20.4242 23.4842C19.414 23.4864 18.4375 23.5494 17.7623 23.6553C17.6504 24.6682 17.6498 25.9099 17.7565 26.8875C18.003 26.9335 18.2617 26.9748 18.4842 26.9982C19.2846 27.0827 20.5249 27.1158 20.6502 27.119Z" fill="#FF0032"/>
</svg>