<svg xmlns="http://www.w3.org/2000/svg" width="40" height="40" viewBox="0 0 40 40" fill="none">
<path fill-rule="evenodd" clip-rule="evenodd" d="M17.6439 10.426C17.4937 10.8742 17.4151 11.2403 17.3322 11.7929C17.2715 12.1972 17.0028 12.5398 16.6246 12.695L14.8321 13.4307C14.5552 13.5444 14.2452 13.5467 13.9667 13.4374C13.441 13.2309 13.0937 13.1247 12.6643 13.0499C11.6916 14.5308 11.1062 15.5822 10.3976 17.168C10.7157 17.5179 10.9962 17.7642 11.4377 18.1049C11.7227 18.3248 11.8897 18.6644 11.8897 19.0243L11.8897 21.0654C11.8897 21.4324 11.7162 21.7778 11.4217 21.997C10.9648 22.3371 10.6894 22.5775 10.395 22.9073C11.1241 24.5255 11.6972 25.5838 12.6535 27.0299C13.1123 26.9457 13.4673 26.8384 13.9855 26.6452C14.2431 26.5492 14.5264 26.5476 14.785 26.6409L16.5776 27.2872C16.9791 27.432 17.2689 27.7853 17.3322 28.2074C17.4151 28.7601 17.4937 29.1261 17.6439 29.5743C19.3609 29.7164 20.5571 29.7094 22.3122 29.5696C22.4563 29.1519 22.5323 28.7931 22.6073 28.2272C22.6648 27.7928 22.9619 27.4278 23.3756 27.2833L25.2259 26.637C25.4817 26.5476 25.7607 26.5505 26.0145 26.6452C26.5327 26.8384 26.8877 26.9457 27.3465 27.0299C28.3028 25.5838 28.8759 24.5255 29.605 22.9073C29.3106 22.5775 29.0352 22.3371 28.5783 21.997C28.2838 21.7778 28.1103 21.4324 28.1103 21.0654L28.1103 19.0243C28.1103 18.6644 28.2772 18.3248 28.5622 18.1049C29.0038 17.7642 29.2843 17.5179 29.6024 17.168C28.8938 15.5822 28.3084 14.5308 27.3357 13.0499C26.9063 13.1247 26.559 13.2309 26.0333 13.4374C25.7589 13.5451 25.4538 13.5445 25.1798 13.4355L23.3294 12.6998C22.9387 12.5444 22.6625 12.19 22.6073 11.7732C22.5323 11.2073 22.4563 10.8485 22.3122 10.4308C20.5571 10.2909 19.3609 10.2839 17.6439 10.426ZM17.1667 8.13587C19.2675 7.94917 20.6568 7.95949 22.7769 8.13851C23.4825 8.19808 24.1201 8.64888 24.3864 9.3412C24.5861 9.86047 24.7093 10.2923 24.8025 10.7861L25.6212 11.1116C26.1825 10.9124 26.6634 10.7931 27.2927 10.7067C28.0319 10.6052 28.7323 10.9529 29.122 11.5401C30.3026 13.3193 30.983 14.5365 31.8359 16.4752C32.124 17.1301 32.029 17.9128 31.543 18.4787C31.1576 18.9276 30.8288 19.2508 30.4329 19.5822L30.4329 20.497C30.8523 20.8396 31.1865 21.1701 31.5648 21.6245C32.0396 22.1947 32.1203 22.9695 31.8343 23.612C30.9653 25.5641 30.3029 26.7913 29.125 28.5496C28.7259 29.1455 28.011 29.485 27.2696 29.3717C26.629 29.2738 26.1524 29.1532 25.6037 28.9652L24.7962 29.2473C24.7037 29.7274 24.5816 30.1515 24.3864 30.6591C24.1201 31.3515 23.4825 31.8023 22.7769 31.8618C20.6568 32.0409 19.2675 32.0512 17.1667 31.8645C16.4491 31.8007 15.8117 31.3333 15.5547 30.6335C15.3666 30.1214 15.2481 29.7032 15.1548 29.2432L14.39 28.9674C13.844 29.1541 13.3685 29.2741 12.7304 29.3717C11.989 29.485 11.2741 29.1455 10.875 28.5496C9.69709 26.7913 9.0347 25.5641 8.16569 23.612C7.87969 22.9695 7.96044 22.1947 8.43521 21.6245C8.81354 21.1701 9.14768 20.8396 9.56706 20.497L9.56706 19.5822C9.17124 19.2508 8.84235 18.9276 8.45696 18.4787C7.97103 17.9128 7.87595 17.1301 8.16408 16.4752C9.01702 14.5365 9.69734 13.3193 10.878 11.5401C11.2677 10.9529 11.9681 10.6052 12.7073 10.7067C13.334 10.7927 13.8134 10.9114 14.3718 11.109L15.1481 10.7904C15.2424 10.3172 15.3621 9.8912 15.5547 9.3668C15.8117 8.667 16.4491 8.19963 17.1667 8.13587Z" fill="#FF0032"/>
<path fill-rule="evenodd" clip-rule="evenodd" d="M16.129 16.1291C16.7703 16.1291 17.2903 16.6491 17.2903 17.2905V22.7099C17.2903 23.3513 16.7703 23.8712 16.129 23.8712C15.4876 23.8712 14.9677 23.3513 14.9677 22.7099V17.2905C14.9677 16.6491 15.4876 16.1291 16.129 16.1291Z" fill="#FF0032"/>
<path fill-rule="evenodd" clip-rule="evenodd" d="M18.0645 20.0002C18.0645 17.8112 19.9116 16.1291 22.0873 16.1291C23.094 16.1291 24.0228 16.4841 24.7354 17.0801C25.2273 17.4915 25.2926 18.2239 24.8811 18.7159C24.4696 19.2079 23.7372 19.2731 23.2452 18.8617C22.9461 18.6115 22.5435 18.4518 22.0873 18.4518C21.0814 18.4518 20.3871 19.2041 20.3871 20.0002C20.3871 20.7915 21.0857 21.5486 22.0967 21.5486H25.4194C26.0608 21.5486 26.5807 22.0685 26.5807 22.7099C26.5807 23.3513 26.0608 23.8712 25.4194 23.8712H22.0967C19.9262 23.8712 18.0645 22.194 18.0645 20.0002Z" fill="#FF0032"/>
</svg>