<svg width="24" height="24" data-v-7fc0e16c="" xmlns="http://www.w3.org/2000/svg" viewBox="0 0 28 28"><path fill="currentColor" fill-rule="evenodd" clip-rule="evenodd" d="M17.001 15.688L12.3037 10.9856L12.3061 10.9823C13.388 9.77952 13.929 9.1781 13.9214 7.99201C13.9139 6.80592 13.3964 6.24519 12.3615 5.12374C12.2547 5.00793 12.1451 4.89348 12.0332 4.78141C11.2429 3.99034 10.3842 3.51025 9.7684 3.23761C8.95304 2.87664 8.08573 2.97273 7.25916 3.22216C6.32705 3.50345 5.44736 3.97938 4.77478 4.6908C4.21822 5.26136 3.82544 5.81067 3.53899 6.46455C2.63108 8.53712 2.9396 10.9541 3.94655 12.9803C4.78189 14.6612 6.239 16.8988 8.77232 19.4348C11.2527 21.9179 13.2363 23.1568 14.9029 24.0013C16.9903 25.0589 19.5044 25.4011 21.6258 24.4136C22.2356 24.1298 22.7572 23.7469 23.2988 23.216C24.4009 22.1658 24.8099 20.7412 24.9613 19.8678C25.0488 19.3626 24.9869 18.8056 24.7871 18.3333C24.5242 17.7119 24.0357 16.797 23.1986 15.9589C23.0867 15.8469 22.9724 15.7372 22.8567 15.6302C21.7364 14.5942 21.1763 14.0762 19.9915 14.0686C18.8067 14.0611 18.2059 14.6026 17.0044 15.6857L17.001 15.688ZM10.3294 10.1528C9.86745 10.6349 9.87677 11.3987 10.3504 11.8693C10.5294 12.0472 10.708 12.2255 10.8863 12.404C12.6211 14.1406 14.3731 15.8665 16.1124 17.5948C16.5564 18.036 17.2614 18.0706 17.7464 17.675C18.3393 17.1913 18.8822 16.5813 19.5365 16.1876C19.6726 16.1057 19.758 16.0733 19.9787 16.0747C20.2224 16.0762 20.3018 16.1139 20.4091 16.179C20.6272 16.3114 20.8858 16.5386 21.4969 17.1038C21.5946 17.1942 21.6898 17.2855 21.7816 17.3775C22.3843 17.9808 22.7461 18.6529 22.9418 19.1155C22.9908 19.2316 23.0079 19.4006 22.9868 19.5248C22.8652 20.2264 22.5631 21.1475 21.9172 21.7629L21.8967 21.7827C21.4798 22.1914 21.1413 22.4268 20.7809 22.5946C19.3791 23.2471 17.5302 23.0841 15.8078 22.2114C14.3146 21.4548 12.5076 20.3371 10.1893 18.0163C7.8037 15.6281 6.47608 13.5665 5.7407 12.0867C4.92052 10.4363 4.76704 8.65623 5.3742 7.27023C5.54442 6.88167 5.78339 6.52848 6.20863 6.09254C6.2212 6.07966 6.23356 6.06664 6.24572 6.05349C6.83165 5.44432 7.69141 5.1409 8.38723 5.0087C8.55694 4.97667 8.79874 5.0021 8.95792 5.0723C9.41803 5.276 10.0479 5.6311 10.6162 6.19993C11.0355 6.61974 11.5079 7.0698 11.8133 7.57391C11.9689 7.8307 11.9576 8.19282 11.8047 8.44754C11.4258 9.0788 10.8387 9.62152 10.3294 10.1528Z"></path></svg>