<svg xmlns="http://www.w3.org/2000/svg" width="40" height="40" viewBox="0 0 40 40" fill="none">
<path d="M20 8C18.7574 8 17.75 9.00736 17.75 10.25C17.75 11.0828 18.2025 11.81 18.875 12.199V17.2841L14.4315 12.8405C13.9921 12.4012 13.2798 12.4012 12.8405 12.8405C12.4012 13.2799 12.4012 13.9922 12.8405 14.4315L17.284 18.875H12.199C11.81 18.2025 11.0828 17.75 10.25 17.75C9.00736 17.75 8 18.7574 8 20C8 21.2426 9.00736 22.25 10.25 22.25C11.0828 22.25 11.81 21.7975 12.199 21.125H17.2841L12.8406 25.5685C12.4013 26.0078 12.4013 26.7201 12.8406 27.1594C13.2799 27.5988 13.9922 27.5988 14.4316 27.1594L18.875 22.716V27.801C18.2025 28.19 17.75 28.9172 17.75 29.75C17.75 30.9926 18.7574 32 20 32C21.2426 32 22.25 30.9926 22.25 29.75C22.25 28.9172 21.7975 28.19 21.125 27.801V22.716L25.5684 27.1594C26.0078 27.5988 26.7201 27.5988 27.1594 27.1594C27.5987 26.7201 27.5987 26.0078 27.1594 25.5685L22.7159 21.125H27.801C28.19 21.7975 28.9172 22.25 29.75 22.25C30.9926 22.25 32 21.2426 32 20C32 18.7574 30.9926 17.75 29.75 17.75C28.9172 17.75 28.19 18.2025 27.801 18.875H22.716L27.1595 14.4315C27.5988 13.9922 27.5988 13.2799 27.1595 12.8405C26.7202 12.4012 26.0079 12.4012 25.5685 12.8405L21.125 17.2841V12.199C21.7975 11.81 22.25 11.0828 22.25 10.25C22.25 9.00736 21.2426 8 20 8Z" fill="#FF0032"/>
</svg>