<svg xmlns="http://www.w3.org/2000/svg" width="40" height="40" viewBox="0 0 40 40" fill="none">
<path fill-rule="evenodd" clip-rule="evenodd" d="M17.6438 10.426C17.4936 10.8742 17.4149 11.2402 17.332 11.7929C17.2714 12.1971 17.0027 12.5397 16.6245 12.695L14.832 13.4307C14.5551 13.5443 14.2451 13.5467 13.9666 13.4373C13.4409 13.2309 13.0936 13.1246 12.6643 13.0498C11.6915 14.5307 11.1062 15.5821 10.3975 17.1679C10.7157 17.5178 10.9961 17.7641 11.4377 18.1047C11.7227 18.3246 11.8896 18.6642 11.8896 19.0242L11.8896 21.0652C11.8896 21.4322 11.7161 21.7776 11.4217 21.9968C10.9647 22.3369 10.6894 22.5773 10.395 22.9071C11.1241 24.5252 11.6972 25.5835 12.6534 27.0296C13.1123 26.9455 13.4672 26.8381 13.9854 26.6449C14.243 26.5489 14.5263 26.5474 14.7849 26.6406L16.5775 27.2869C16.979 27.4317 17.2687 27.785 17.332 28.2071C17.4149 28.7598 17.4936 29.1258 17.6438 29.574C19.3607 29.7161 20.5569 29.7091 22.312 29.5693C22.4561 29.1516 22.5321 28.7928 22.6071 28.2269C22.6646 27.7925 22.9617 27.4275 23.3754 27.283L25.2257 26.6367C25.4814 26.5474 25.7604 26.5503 26.0143 26.6449C26.5325 26.8381 26.8874 26.9455 27.3462 27.0296C28.3025 25.5835 28.8756 24.5252 29.6047 22.9071C29.3103 22.5773 29.0349 22.3369 28.578 21.9968C28.2835 21.7777 28.11 21.4322 28.11 21.0652L28.11 19.0242C28.11 18.6642 28.277 18.3246 28.562 18.1047C29.0035 17.7641 29.284 17.5178 29.6021 17.1679C28.8935 15.5821 28.3081 14.5307 27.3354 13.0498C26.906 13.1247 26.5587 13.2309 26.0331 13.4373C25.7587 13.545 25.4535 13.5444 25.1795 13.4355L23.3292 12.6997C22.9385 12.5444 22.6623 12.19 22.6071 11.7731C22.5321 11.2072 22.4561 10.8484 22.312 10.4307C20.5569 10.2909 19.3607 10.2839 17.6438 10.426ZM17.1665 8.13587C19.2674 7.94917 20.6566 7.95949 22.7767 8.13851C23.4823 8.19808 24.1199 8.64887 24.3861 9.34118C24.5858 9.86045 24.709 10.2923 24.8023 10.786L25.6209 11.1115C26.1822 10.9124 26.6631 10.793 27.2924 10.7067C28.0316 10.6052 28.732 10.9528 29.1217 11.5401C30.3023 13.3192 30.9826 14.5364 31.8356 16.4751C32.1237 17.1299 32.0286 17.9126 31.5427 18.4786C31.1573 18.9275 30.8284 19.2506 30.4326 19.582L30.4326 20.4968C30.852 20.8395 31.1861 21.1699 31.5645 21.6243C32.0392 22.1945 32.12 22.9693 31.834 23.6118C30.965 25.5638 30.3026 26.791 29.1247 28.5493C28.7256 29.1452 28.0107 29.4847 27.2693 29.3714C26.6288 29.2735 26.1521 29.1529 25.6035 28.9649L24.796 29.247C24.7035 29.7271 24.5814 30.1512 24.3861 30.6588C24.1199 31.3511 23.4823 31.8019 22.7767 31.8615C20.6566 32.0405 19.2674 32.0508 17.1665 31.8641C16.449 31.8004 15.8116 31.333 15.5546 30.6332C15.3665 30.1211 15.248 29.7029 15.1547 29.2429L14.3899 28.9671C13.8439 29.1538 13.3684 29.2738 12.7304 29.3714C11.9889 29.4847 11.2741 29.1452 10.8749 28.5493C9.69707 26.791 9.03469 25.5638 8.16569 23.6118C7.87969 22.9693 7.96044 22.1945 8.4352 21.6243C8.81353 21.1699 9.14766 20.8395 9.56704 20.4968L9.56704 19.582C9.17122 19.2506 8.84234 18.9275 8.45695 18.4786C7.97103 17.9126 7.87595 17.1299 8.16408 16.4751C9.01701 14.5364 9.69732 13.3192 10.8779 11.5401C11.2676 10.9528 11.968 10.6052 12.7072 10.7067C13.3339 10.7927 13.8134 10.9114 14.3717 11.109L15.148 10.7904C15.2423 10.3172 15.362 9.89117 15.5546 9.36678C15.8116 8.66699 16.449 8.19963 17.1665 8.13587Z" fill="#FF0032"/>
<path fill-rule="evenodd" clip-rule="evenodd" d="M23.0966 23.4839C22.4552 23.4839 21.9353 22.9639 21.9353 22.3226L21.9353 9.93548C21.9353 9.29412 22.4552 8.77419 23.0966 8.77419C23.738 8.77419 24.2579 9.29412 24.2579 9.93548L24.2579 22.3226C24.2579 22.9639 23.738 23.4839 23.0966 23.4839Z" fill="#FF0032"/>
<path fill-rule="evenodd" clip-rule="evenodd" d="M16.9031 31.2258C16.2617 31.2258 15.7418 30.7059 15.7418 30.0645L15.7418 18.4516C15.7418 17.8102 16.2617 17.2903 16.9031 17.2903C17.5444 17.2903 18.0643 17.8102 18.0643 18.4516L18.0643 30.0645C18.0643 30.7059 17.5444 31.2258 16.9031 31.2258Z" fill="#FF0032"/>
<path fill-rule="evenodd" clip-rule="evenodd" d="M20.774 21.9355C20.774 20.6528 21.8139 19.6129 23.0966 19.6129C24.3793 19.6129 25.4192 20.6528 25.4192 21.9355C25.4192 23.2182 24.3793 24.2581 23.0966 24.2581C21.8139 24.2581 20.774 23.2182 20.774 21.9355Z" fill="#FF0032"/>
<path fill-rule="evenodd" clip-rule="evenodd" d="M14.5805 18.0645C14.5805 16.7818 15.6203 15.7419 16.9031 15.7419C18.1858 15.7419 19.2256 16.7818 19.2256 18.0645C19.2256 19.3472 18.1858 20.3871 16.9031 20.3871C15.6203 20.3871 14.5805 19.3472 14.5805 18.0645Z" fill="#FF0032"/>
</svg>