<svg xmlns="http://www.w3.org/2000/svg" width="40" height="40" viewBox="0 0 40 40" fill="none">
<path d="M14 22C12.8954 22 12 21.1046 12 20C12 18.8954 12.8954 18 14 18C15.1046 18 16 18.8954 16 20C16 21.1046 15.1046 22 14 22Z" fill="#FF0032"/>
<path d="M26 22C24.8954 22 24 21.1046 24 20C24 18.8954 24.8954 18 26 18C27.1046 18 28 18.8954 28 20C28 21.1046 27.1046 22 26 22Z" fill="#FF0032"/>
<path fill-rule="evenodd" clip-rule="evenodd" d="M16.0858 23.1543C16.332 22.539 17.0303 22.2397 17.6457 22.4858C18.5403 22.8437 19.2875 23 20 23C20.7126 23 21.4597 22.8437 22.3543 22.4858C22.9697 22.2397 23.668 22.539 23.9142 23.1543C24.1603 23.7697 23.861 24.468 23.2457 24.7142C22.1403 25.1563 21.0875 25.4 20 25.4C18.9126 25.4 17.8597 25.1563 16.7543 24.7142C16.139 24.468 15.8397 23.7697 16.0858 23.1543Z" fill="#FF0032"/>
<path d="M14 9.2C14 8.53726 13.4627 8 12.8 8C12.1373 8 11.6 8.53726 11.6 9.2V12.4C11.6606 12.3364 11.7219 12.2735 11.7839 12.2113C12.4475 11.5455 13.1914 10.9599 14 10.4703V9.2Z" fill="#FF0032"/>
<path fill-rule="evenodd" clip-rule="evenodd" d="M7.60001 18.8L7.60001 22C7.60001 22.6426 8.10505 23.1672 8.73983 23.1985C9.99191 28.2531 14.5584 32 20 32C25.4416 32 30.0081 28.2531 31.2602 23.1985C31.895 23.1672 32.4 22.6426 32.4 22V18.8C32.4 18.1574 31.895 17.6328 31.2602 17.6015C30.7686 15.6168 29.7659 13.8338 28.4 12.4C28.0337 12.0154 27.6412 11.656 27.2254 11.3245C26.8365 11.0145 26.4273 10.729 26 10.4703C24.2494 9.41019 22.196 8.8 20 8.8C17.8041 8.8 15.7506 9.41019 14 10.4703C13.1914 10.9599 12.4475 11.5455 11.7839 12.2113C11.7219 12.2735 11.6606 12.3364 11.6 12.4C10.2341 13.8338 9.23146 15.6168 8.73983 17.6015C8.10505 17.6328 7.60001 18.1574 7.60001 18.8ZM20 11.2C14.919 11.2 10.8 15.319 10.8 20.4C10.8 25.481 14.919 29.6 20 29.6C25.081 29.6 29.2 25.481 29.2 20.4C29.2 15.319 25.081 11.2 20 11.2Z" fill="#FF0032"/>
<path fill-rule="evenodd" clip-rule="evenodd" d="M14 22C12.8954 22 12 21.1046 12 20C12 18.8954 12.8954 18 14 18C15.1046 18 16 18.8954 16 20C16 21.1046 15.1046 22 14 22ZM26 22C24.8954 22 24 21.1046 24 20C24 18.8954 24.8954 18 26 18C27.1046 18 28 18.8954 28 20C28 21.1046 27.1046 22 26 22ZM17.6457 22.4858C17.0303 22.2397 16.332 22.539 16.0858 23.1543C15.8397 23.7697 16.139 24.468 16.7543 24.7142C17.8597 25.1563 18.9126 25.4 20 25.4C21.0875 25.4 22.1403 25.1563 23.2457 24.7142C23.861 24.468 24.1603 23.7697 23.9142 23.1543C23.668 22.539 22.9697 22.2397 22.3543 22.4858C21.4597 22.8437 20.7126 23 20 23C19.2875 23 18.5403 22.8437 17.6457 22.4858Z" fill="#FF0032"/>
<path d="M28.4 9.2C28.4 8.53726 27.8627 8 27.2 8C26.5373 8 26 8.53726 26 9.2V10.4703C26.4273 10.729 26.8365 11.0145 27.2254 11.3245C27.6412 11.656 28.0337 12.0154 28.4 12.4V9.2Z" fill="#FF0032"/>
</svg>