<svg xmlns="http://www.w3.org/2000/svg" width="40" height="40" viewBox="0 0 40 40" fill="none">
<path fill-rule="evenodd" clip-rule="evenodd" d="M23.1804 11.1275C22.0257 10.9543 20.7935 10.8766 19.5571 10.9009C18.3205 10.9252 17.1147 11.0507 16.0109 11.2671C15.9109 11.2867 15.8121 11.307 15.7145 11.3279C14.7321 11.5387 13.8727 11.8159 13.1719 12.1367C12.7867 12.3131 12.4674 12.4944 12.2084 12.6726C11.9429 12.8554 11.7406 13.035 11.5955 13.2029C11.3226 13.5188 11.3 13.7285 11.3135 13.8483C11.3297 13.9914 11.4284 14.2636 11.8369 14.6254C12.2449 14.9867 12.8811 15.361 13.756 15.6927C14.6232 16.0216 15.6631 16.2852 16.8196 16.4587C17.9743 16.6319 19.2065 16.7096 20.4429 16.6853C21.4645 16.6653 22.4651 16.5761 23.4046 16.4237C23.6022 16.3916 23.7972 16.3567 23.9891 16.3191C25.0957 16.1022 26.0577 15.8022 26.8281 15.4495C27.0228 15.3603 27.2006 15.27 27.3623 15.1794C27.8487 14.9068 28.1894 14.6322 28.4045 14.3833C28.6775 14.0674 28.7001 13.8577 28.6865 13.7379C28.6704 13.5948 28.5716 13.3226 28.1631 12.9608C27.7551 12.5995 27.1189 12.2252 26.244 11.8935C25.3768 11.5646 24.337 11.3011 23.1804 11.1275ZM19.5084 8.41861C20.8774 8.39175 22.2494 8.47729 23.5488 8.67225C24.8463 8.86692 26.0624 9.16934 27.1243 9.57199C28.1785 9.97171 29.1067 10.4801 29.8091 11.1021C30.5111 11.7238 31.047 12.5165 31.1536 13.459C31.2627 14.4248 30.8937 15.3 30.283 16.0067C29.6859 16.6976 28.837 17.2603 27.8617 17.7069C26.8766 18.1579 25.7203 18.5098 24.4667 18.7555C24.3181 18.7846 24.1682 18.8123 24.0171 18.8384C22.8908 19.0331 21.6985 19.1439 20.4916 19.1676C19.1226 19.1945 17.7507 19.1089 16.4513 18.914C15.1538 18.7193 13.9376 18.4169 12.8757 18.0142C11.8216 17.6145 10.8933 17.1061 10.1909 16.4841C9.48895 15.8624 8.95299 15.0697 8.84645 14.1272C8.73728 13.1614 9.10634 12.2862 9.71705 11.5795C10.0426 11.2028 10.4429 10.8643 10.8978 10.5619C11.2773 10.3096 11.6947 10.0825 12.1383 9.87935C13.0561 9.45912 14.1225 9.125 15.2777 8.88256C15.3624 8.86478 15.4476 8.84749 15.5333 8.8307C16.7896 8.58441 18.1396 8.44548 19.5084 8.41861Z" fill="#FF0032"/>
<path fill-rule="evenodd" clip-rule="evenodd" d="M9.03609 20.5528C9.41639 19.9823 10.1871 19.8282 10.7576 20.2085C11.1345 20.4598 11.5267 20.6833 11.9278 20.8821C15.1186 22.4635 18.8755 22.4828 20 22.4828C21.2659 22.4828 25.8677 22.4583 29.2425 20.2085C29.8129 19.8282 30.5836 19.9823 30.9639 20.5528C31.3442 21.1232 31.1901 21.894 30.6196 22.2743C26.5811 24.9666 21.3085 24.9657 20.0323 24.9655C20.0212 24.9655 20.0105 24.9655 20 24.9655C19.9895 24.9655 19.9788 24.9655 19.9677 24.9655C18.6916 24.9657 13.4189 24.9666 9.38038 22.2743C8.80994 21.894 8.65579 21.1232 9.03609 20.5528Z" fill="#FF0032"/>
<path fill-rule="evenodd" clip-rule="evenodd" d="M9.03609 26.3459C9.41639 25.7754 10.1871 25.6213 10.7576 26.0016C14.1323 28.2514 18.7341 28.2759 20 28.2759C21.2659 28.2759 25.8677 28.2514 29.2425 26.0016C29.8129 25.6213 30.5836 25.7754 30.9639 26.3459C31.3442 26.9163 31.1901 27.6871 30.6196 28.0674C26.5811 30.7597 21.3085 30.7588 20.0323 30.7586C20.0212 30.7586 20.0105 30.7586 20 30.7586C19.9895 30.7586 19.9788 30.7586 19.9677 30.7586C18.6916 30.7588 13.4189 30.7597 9.38038 28.0674C8.80994 27.6871 8.65579 26.9163 9.03609 26.3459Z" fill="#FF0032"/>
<path d="M15.8621 10.4828C15.8621 10.7795 15.81 11.0641 15.7145 11.3279C15.3688 12.283 14.4538 12.9655 13.3793 12.9655C12.9559 12.9655 12.5573 12.8595 12.2084 12.6726C11.4494 12.266 10.9264 11.4762 10.8978 10.5619C10.897 10.5356 10.8966 10.5092 10.8966 10.4828C10.8966 9.11157 12.0081 8 13.3793 8C14.1408 8 14.8222 8.34283 15.2777 8.88256C15.6423 9.3147 15.8621 9.87307 15.8621 10.4828Z" fill="#FF0032"/>
<path d="M28.2759 17.1034C28.2759 17.2444 28.2641 17.3827 28.2415 17.5172C28.0445 18.6915 27.0233 19.5862 25.7931 19.5862C25.0971 19.5862 24.4679 19.2998 24.0171 18.8384C23.5799 18.3908 23.3104 17.7786 23.3104 17.1034C23.3104 16.8677 23.3432 16.6397 23.4046 16.4237C23.7002 15.383 24.6576 14.6207 25.7931 14.6207C26.3883 14.6207 26.9346 14.8301 27.3623 15.1794C27.9199 15.6346 28.2759 16.3275 28.2759 17.1034Z" fill="#FF0032"/>
<path d="M15.8621 22.8966C15.8621 24.2677 14.7505 25.3793 13.3793 25.3793C12.0081 25.3793 10.8966 24.2677 10.8966 22.8966C10.8966 22.0673 11.3031 21.333 11.9278 20.8821C12.336 20.5874 12.8374 20.4138 13.3793 20.4138C14.7505 20.4138 15.8621 21.5254 15.8621 22.8966Z" fill="#FF0032"/>
<path d="M23.3104 29.5172C23.3104 30.8884 22.1988 32 20.8276 32C19.4564 32 18.3448 30.8884 18.3448 29.5172C18.3448 28.1461 19.4564 27.0345 20.8276 27.0345C22.1988 27.0345 23.3104 28.1461 23.3104 29.5172Z" fill="#FF0032"/>
</svg>