<svg xmlns="http://www.w3.org/2000/svg" width="40" height="40" viewBox="0 0 40 40" fill="none">
<g clip-path="url(#clip0_222_80)">
<path d="M16.9032 20.0001C16.9032 18.5403 16.9032 17.8103 17.3567 17.3568C17.8102 16.9033 18.5402 16.9033 20 16.9033C21.4598 16.9033 22.1897 16.9033 22.6432 17.3568C23.0968 17.8103 23.0968 18.5403 23.0968 20.0001C23.0968 21.4599 23.0968 22.1898 22.6432 22.6433C22.1897 23.0969 21.4598 23.0969 20 23.0969C18.5402 23.0969 17.8102 23.0969 17.3567 22.6433C16.9032 22.1898 16.9032 21.4599 16.9032 20.0001Z" fill="#FF0032"/>
<path fill-rule="evenodd" clip-rule="evenodd" d="M20 10.3226L19.7786 10.3226C18.3627 10.3222 17.32 10.322 16.4542 10.4438L16.4491 10.4043C16.3751 9.85391 16.201 9.27214 15.7225 8.79366C15.244 8.31517 14.6622 8.14106 14.1118 8.06706C13.612 7.99985 12.9975 7.99993 12.3274 8.00001H12.1888C11.5186 7.99993 10.9042 7.99985 10.4043 8.06706C9.85391 8.14106 9.27214 8.31517 8.79366 8.79366C8.31517 9.27214 8.14106 9.85391 8.06706 10.4043C7.99985 10.9042 7.99993 11.5186 8.00001 12.1888V12.3274C7.99993 12.9975 7.99985 13.612 8.06706 14.1118C8.14106 14.6622 8.31517 15.244 8.79366 15.7225C9.27214 16.201 9.85391 16.3751 10.4043 16.4491L10.4438 16.4542C10.322 17.32 10.3222 18.3627 10.3226 19.7786L10.3226 20L10.3226 20.2214C10.3222 21.6373 10.322 22.68 10.4438 23.5458L10.4043 23.5509C9.85391 23.6249 9.27214 23.799 8.79366 24.2775C8.31517 24.756 8.14106 25.3378 8.06706 25.8882C7.99985 26.388 7.99993 27.0025 8.00001 27.6726V27.8112C7.99993 28.4814 7.99985 29.0958 8.06706 29.5957C8.14106 30.1461 8.31517 30.7279 8.79366 31.2063C9.27214 31.6848 9.85391 31.8589 10.4043 31.9329C10.9042 32.0001 11.5186 32.0001 12.1888 32H12.3274C12.9975 32.0001 13.612 32.0001 14.1118 31.9329C14.6622 31.8589 15.244 31.6848 15.7225 31.2063C16.201 30.7279 16.3751 30.1461 16.4491 29.5957L16.4542 29.5562C17.32 29.678 18.3627 29.6777 19.7786 29.6774H20H20.2214C21.6373 29.6777 22.68 29.678 23.5458 29.5562L23.5509 29.5957C23.6249 30.1461 23.799 30.7279 24.2775 31.2063C24.756 31.6848 25.3378 31.8589 25.8882 31.9329C26.388 32.0001 27.0025 32.0001 27.6726 32H27.8112C28.4814 32.0001 29.0958 32.0001 29.5957 31.9329C30.1461 31.8589 30.7279 31.6848 31.2063 31.2063C31.6848 30.7279 31.8589 30.1461 31.9329 29.5957C32.0001 29.0958 32.0001 28.4814 32 27.8112V27.6726C32.0001 27.0025 32.0001 26.388 31.9329 25.8882C31.8589 25.3378 31.6848 24.756 31.2063 24.2775C30.7279 23.799 30.1461 23.6249 29.5957 23.5509L29.5562 23.5458C29.678 22.68 29.6777 21.6373 29.6774 20.2214V20V19.7786C29.6777 18.3627 29.678 17.32 29.5562 16.4542L29.5957 16.4491C30.1461 16.3751 30.7279 16.201 31.2063 15.7225C31.6848 15.244 31.8589 14.6622 31.9329 14.1118C32.0001 13.612 32.0001 12.9975 32 12.3274V12.1888C32.0001 11.5186 32.0001 10.9042 31.9329 10.4043C31.8589 9.85391 31.6848 9.27214 31.2063 8.79366C30.7279 8.31517 30.1461 8.14106 29.5957 8.06706C29.0958 7.99985 28.4814 7.99993 27.8112 8.00001H27.6726C27.0025 7.99993 26.388 7.99985 25.8882 8.06706C25.3378 8.14106 24.756 8.31517 24.2775 8.79366C23.799 9.27214 23.6249 9.85391 23.5509 10.4043L23.5458 10.4438C22.68 10.322 21.6373 10.3222 20.2214 10.3226L20 10.3226ZM16.4491 14.1118C16.3751 14.6622 16.201 15.244 15.7225 15.7225C15.244 16.201 14.6622 16.3751 14.1118 16.4491C13.7286 16.5006 13.278 16.5126 12.7866 16.5153C12.6545 17.1602 12.6452 18.0706 12.6452 20C12.6452 21.9294 12.6545 22.8398 12.7866 23.4847C13.278 23.4874 13.7286 23.4994 14.1118 23.5509C14.6622 23.6249 15.244 23.799 15.7225 24.2775C16.201 24.756 16.3751 25.3378 16.4491 25.8882C16.5006 26.2714 16.5126 26.722 16.5153 27.2134C17.1602 27.3455 18.0706 27.3548 20 27.3548C21.9294 27.3548 22.8398 27.3455 23.4847 27.2134C23.4874 26.722 23.4994 26.2714 23.5509 25.8882C23.6249 25.3378 23.799 24.756 24.2775 24.2775C24.756 23.799 25.3378 23.6249 25.8882 23.5509C26.2714 23.4994 26.722 23.4874 27.2134 23.4847C27.3455 22.8398 27.3548 21.9294 27.3548 20C27.3548 18.0706 27.3455 17.1602 27.2134 16.5153C26.722 16.5126 26.2714 16.5006 25.8882 16.4491C25.3378 16.3751 24.756 16.201 24.2775 15.7225C23.799 15.244 23.6249 14.6622 23.5509 14.1118C23.4994 13.7286 23.4874 13.278 23.4847 12.7866C22.8398 12.6545 21.9294 12.6452 20 12.6452C18.0706 12.6452 17.1602 12.6545 16.5153 12.7866C16.5126 13.278 16.5006 13.7286 16.4491 14.1118ZM13.4194 10.3226H11.0968C10.6692 10.3226 10.3226 10.6692 10.3226 11.0968V13.4194C10.3226 13.8469 10.6692 14.1935 11.0968 14.1935H13.4194C13.8469 14.1935 14.1935 13.8469 14.1935 13.4194V11.0968C14.1935 10.6692 13.8469 10.3226 13.4194 10.3226ZM28.9032 10.3226H26.5806C26.1531 10.3226 25.8064 10.6692 25.8064 11.0968V13.4194C25.8064 13.8469 26.1531 14.1935 26.5806 14.1935H28.9032C29.3308 14.1935 29.6774 13.8469 29.6774 13.4194V11.0968C29.6774 10.6692 29.3308 10.3226 28.9032 10.3226ZM13.4194 25.8064H11.0968C10.6692 25.8064 10.3226 26.1531 10.3226 26.5806V28.9032C10.3226 29.3308 10.6692 29.6774 11.0968 29.6774H13.4194C13.8469 29.6774 14.1935 29.3308 14.1935 28.9032V26.5806C14.1935 26.1531 13.8469 25.8064 13.4194 25.8064ZM28.9032 25.8064H26.5806C26.1531 25.8064 25.8064 26.1531 25.8064 26.5806V28.9032C25.8064 29.3308 26.1531 29.6774 26.5806 29.6774H28.9032C29.3308 29.6774 29.6774 29.3308 29.6774 28.9032V26.5806C29.6774 26.1531 29.3308 25.8064 28.9032 25.8064Z" fill="#FF0032"/>
</g>
<defs>
<clipPath id="clip0_222_80">
<rect width="24" height="24" fill="white" transform="translate(8 8)"/>
</clipPath>
</defs>
</svg>