<svg xmlns="http://www.w3.org/2000/svg" width="40" height="40" viewBox="0 0 40 40" fill="none">
<path fill-rule="evenodd" clip-rule="evenodd" d="M15.2 8C11.0026 8 7.59998 11.4026 7.59998 15.6L7.59998 22C7.59998 26.1974 11.0026 29.6 15.2 29.6H20.8C21.4627 29.6 22 29.0627 22 28.4C22 27.7373 21.4627 27.2 20.8 27.2H15.2C12.3281 27.2 9.99998 24.8719 9.99998 22L9.99998 15.6C9.99998 12.7281 12.3281 10.4 15.2 10.4L23.2 10.4C26.0719 10.4 28.4 12.7281 28.4 15.6V19.6C28.4 20.2627 28.9372 20.8 29.6 20.8C30.2627 20.8 30.8 20.2627 30.8 19.6V15.6C30.8 11.4026 27.3973 8 23.2 8L15.2 8Z" fill="#FF0032"/>
<path fill-rule="evenodd" clip-rule="evenodd" d="M27.247 20.2227C26.1716 19.9258 25.0282 19.9258 23.9529 20.2227C22.9634 20.4959 22.1402 20.8456 21.2 21.4437V25.5289C21.2038 25.5418 21.2099 25.561 21.2196 25.587C21.2535 25.6785 21.315 25.8122 21.4135 25.9832C21.6101 26.3242 21.9204 26.7554 22.3447 27.2143C23.1186 28.0514 24.2213 28.9263 25.5999 29.5104C26.9785 28.9263 28.0812 28.0513 28.8552 27.2143C29.2796 26.7554 29.5899 26.3242 29.7864 25.9832C29.8849 25.8122 29.9465 25.6785 29.9804 25.587C29.99 25.561 29.9962 25.5418 30 25.5289V21.4437C29.0598 20.8456 28.2364 20.4959 27.247 20.2227ZM23.3141 17.9093C24.8075 17.4969 26.3923 17.4969 27.8857 17.9093C29.17 18.2639 30.2631 18.7418 31.4913 19.5502C32.0802 19.9378 32.4 20.5902 32.4 21.252V25.584C32.4 25.8968 32.3155 26.1926 32.2307 26.4214C32.1393 26.6679 32.0139 26.9247 31.8658 27.1816C31.5691 27.6963 31.1476 28.2702 30.6174 28.8437C29.5579 29.9894 28.0038 31.1982 26.0123 31.9269C25.746 32.0244 25.4538 32.0244 25.1875 31.9269C23.196 31.1982 21.6419 29.9894 20.5825 28.8437C20.0523 28.2702 19.6308 27.6963 19.3341 27.1815C19.1861 26.9246 19.0607 26.6678 18.9693 26.4214C18.8845 26.1926 18.8 25.8968 18.8 25.584V21.252C18.8 20.5902 19.1198 19.9378 19.7087 19.5502C20.9368 18.7418 22.0298 18.2639 23.3141 17.9093Z" fill="#FF0032"/>
<path fill-rule="evenodd" clip-rule="evenodd" d="M22.0485 19.1515L30.4485 27.5515L28.7514 29.2485L20.3514 20.8485L22.0485 19.1515Z" fill="#FF0032"/>
<path fill-rule="evenodd" clip-rule="evenodd" d="M21.2485 12.3515C21.7171 12.8201 21.7171 13.5799 21.2485 14.0485L17.6485 17.6485C17.1799 18.1172 16.4201 18.1172 15.9514 17.6485L15.2 16.8971L13.6485 18.4485C13.1799 18.9172 12.4201 18.9172 11.9514 18.4485C11.4828 17.9799 11.4828 17.2201 11.9514 16.7515L14.3514 14.3515C14.8201 13.8828 15.5799 13.8828 16.0485 14.3515L16.8 15.1029L19.5514 12.3515C20.0201 11.8828 20.7799 11.8828 21.2485 12.3515Z" fill="#FF0032"/>
</svg>