<svg xmlns="http://www.w3.org/2000/svg" width="40" height="40" viewBox="0 0 40 40" fill="none">
<path fill-rule="evenodd" clip-rule="evenodd" d="M23.2234 10.7607C21.1183 10.1765 18.8815 10.1765 16.7763 10.7607C14.7937 11.311 13.1484 12.0321 11.2385 13.2956C11.165 13.3443 11.0969 13.4481 11.0969 13.5907V21.416C11.0971 21.4189 11.1049 21.5293 11.1949 21.7733C11.2799 22.0037 11.4172 22.297 11.6149 22.6419C12.01 23.3309 12.614 24.1697 13.4207 25.0466C15.0351 26.8015 17.402 28.6456 20.4007 29.7485C21.0027 29.9699 21.3112 30.6373 21.0898 31.2393C20.8684 31.8412 20.2009 32.1497 19.599 31.9283C16.1932 30.6756 13.528 28.5937 11.7114 26.619C10.8025 25.631 10.0914 24.6541 9.60009 23.7972C9.35468 23.3692 9.15603 22.957 9.01587 22.5771C8.88197 22.2141 8.77434 21.8089 8.77434 21.416V13.5907C8.77434 12.7168 9.19419 11.8633 9.95706 11.3586C12.0752 9.95734 13.9441 9.13645 16.1552 8.52279C18.6667 7.82573 21.333 7.82575 23.8445 8.52277C26.0557 9.13643 27.9248 9.95732 30.0429 11.3586C30.8058 11.8633 31.2257 12.7168 31.2257 13.5907V21.4161C31.2257 22.0574 30.7057 22.5773 30.0644 22.5773C29.423 22.5773 28.9031 22.0574 28.9031 21.4161V13.5907C28.9031 13.4481 28.835 13.3443 28.7614 13.2956C26.8516 12.0321 25.2062 11.311 23.2234 10.7607Z" fill="#FF0032"/>
<path fill-rule="evenodd" clip-rule="evenodd" d="M25.4193 24.2578C24.3504 24.2578 23.4838 25.1244 23.4838 26.1933C23.4838 27.2622 24.3504 28.1288 25.4193 28.1288C26.4882 28.1288 27.3547 27.2622 27.3547 26.1933C27.3547 25.1244 26.4882 24.2578 25.4193 24.2578ZM21.1613 26.1933C21.1613 23.8417 23.0676 21.9353 25.4193 21.9353C27.7709 21.9353 29.6773 23.8417 29.6773 26.1933C29.6773 28.5449 27.7709 30.4513 25.4193 30.4513C23.0676 30.4513 21.1613 28.5449 21.1613 26.1933Z" fill="#FF0032"/>
<path fill-rule="evenodd" clip-rule="evenodd" d="M26.9207 27.6947C27.3742 27.2412 28.1095 27.2412 28.563 27.6947L30.8855 30.0173C31.339 30.4708 31.339 31.206 30.8855 31.6596C30.432 32.1131 29.6967 32.1131 29.2432 31.6596L26.9207 29.337C26.4672 28.8835 26.4672 28.1482 26.9207 27.6947Z" fill="#FF0032"/>
<path fill-rule="evenodd" clip-rule="evenodd" d="M19.1045 11.9017C19.567 12.0105 19.9167 12.39 19.9871 12.8599L20.7169 17.7249L21.7583 16.2372C21.9756 15.9267 22.3307 15.7418 22.7096 15.7418H25.0322C25.6735 15.7418 26.1935 16.2618 26.1935 16.9031C26.1935 17.5445 25.6735 18.0644 25.0322 18.0644H23.3143L20.9513 21.44C20.6789 21.8292 20.1967 22.0132 19.7342 21.9045C19.2717 21.7957 18.9221 21.4162 18.8516 20.9463L18.1218 16.0813L17.0804 17.5691C16.8631 17.8795 16.508 18.0644 16.1291 18.0644H13.8065C13.1652 18.0644 12.6453 17.5445 12.6453 16.9031C12.6453 16.2618 13.1652 15.7418 13.8065 15.7418H15.5245L17.8874 12.3662C18.1598 11.977 18.642 11.793 19.1045 11.9017Z" fill="#FF0032"/>
</svg>