<?xml version="1.0" encoding="utf-8"?>
<svg width="24" height="24" viewBox="0 0 24 24" fill="none" xmlns="http://www.w3.org/2000/svg" data-v-7fc0e16c=""><path d="M20.1892 4C20.7439 4 21.1623 4.49711 20.9385 5.42173L18.2235 18.4957C18.0337 19.4253 17.4839 19.649 16.7249 19.2165L10.2487 14.3299C10.2236 14.3115 10.2031 14.2873 10.189 14.2592C10.1749 14.2311 10.1675 14.2 10.1675 14.1684C10.1675 14.1368 10.1749 14.1057 10.189 14.0776C10.2031 14.0495 10.2236 14.0252 10.2487 14.0068L17.7272 7.10694C18.0678 6.79873 17.6542 6.6496 17.2066 6.92798L7.82071 12.9778C7.79225 12.9968 7.75993 13.0089 7.72621 13.0132C7.69249 13.0175 7.65825 13.0139 7.62609 13.0027L3.64112 11.7151C2.75557 11.4517 2.75557 10.8303 3.84061 10.3879L19.7853 4.10439C19.9118 4.04241 20.0491 4.00692 20.1892 4Z" fill="currentColor"></path></svg>