<svg xmlns="http://www.w3.org/2000/svg" width="40" height="40" viewBox="0 0 40 40" fill="none">
<path fill-rule="evenodd" clip-rule="evenodd" d="M10.8396 23.7246C10.8587 23.7246 10.8777 23.7246 10.8966 23.7246H12.5517C12.5707 23.7246 12.5897 23.7246 12.6088 23.7246C12.9483 23.7245 13.3154 23.7243 13.6252 23.766C13.9883 23.8148 14.452 23.9403 14.8423 24.3306C15.2326 24.7209 15.3581 25.1847 15.4069 25.5477C15.4486 25.8576 15.4484 26.2247 15.4483 26.5642C15.4483 26.5833 15.4483 26.6023 15.4483 26.6212V28.2764C15.4483 28.2953 15.4483 28.3143 15.4483 28.3334C15.4484 28.6729 15.4486 29.04 15.4069 29.3498C15.3581 29.7129 15.2326 30.1766 14.8423 30.5669C14.452 30.9572 13.9883 31.0827 13.6252 31.1315C13.3154 31.1732 12.9483 31.173 12.6088 31.1729C12.5897 31.1729 12.5707 31.1729 12.5517 31.1729H10.8966C10.8777 31.1729 10.8587 31.1729 10.8396 31.1729C10.5001 31.173 10.133 31.1732 9.82308 31.1315C9.46006 31.0827 8.9963 30.9572 8.60601 30.5669C8.21573 30.1766 8.09021 29.7129 8.0414 29.3498C7.99974 29.04 7.99988 28.6729 8.00002 28.3334C8.00002 28.3143 8.00003 28.2953 8.00003 28.2764V26.6212C8.00003 26.6023 8.00002 26.5833 8.00002 26.5642C7.99988 26.2247 7.99974 25.8576 8.0414 25.5477C8.09021 25.1847 8.21573 24.7209 8.60601 24.3306C8.9963 23.9403 9.46006 23.8148 9.82308 23.766C10.133 23.7243 10.5001 23.7245 10.8396 23.7246ZM10.4847 26.2093C10.4828 26.3243 10.4828 26.4572 10.4828 26.6212V28.2764C10.4828 28.4403 10.4828 28.5733 10.4847 28.6882C10.5997 28.6901 10.7326 28.6901 10.8966 28.6901H12.5517C12.7157 28.6901 12.8487 28.6901 12.9636 28.6882C12.9655 28.5733 12.9655 28.4403 12.9655 28.2764V26.6212C12.9655 26.4572 12.9655 26.3243 12.9636 26.2093C12.8487 26.2074 12.7157 26.2074 12.5517 26.2074H10.8966C10.7326 26.2074 10.5997 26.2074 10.4847 26.2093Z" fill="#FF0032"/>
<path fill-rule="evenodd" clip-rule="evenodd" d="M27.3912 21.2419C27.4103 21.2419 27.4294 21.2419 27.4483 21.2419H29.1034C29.1223 21.2419 29.1413 21.2419 29.1604 21.2419C29.4999 21.2417 29.867 21.2416 30.1769 21.2833C30.5399 21.3321 31.0037 21.4576 31.394 21.8479C31.7843 22.2382 31.9098 22.7019 31.9586 23.0649C32.0003 23.3748 32.0001 23.7419 32 24.0814C32 24.1005 32 24.1195 32 24.1384V25.7936C32 25.8125 32 25.8315 32 25.8506C32.0001 26.1901 32.0003 26.5572 31.9586 26.8671C31.9098 27.2301 31.7843 27.6939 31.394 28.0842C31.0037 28.4744 30.5399 28.6 30.1769 28.6488C29.867 28.6904 29.4999 28.6903 29.1604 28.6902C29.1413 28.6902 29.1223 28.6901 29.1034 28.6901H27.4483C27.4293 28.6901 27.4103 28.6902 27.3912 28.6902C27.0517 28.6903 26.6846 28.6904 26.3748 28.6488C26.0117 28.6 25.548 28.4744 25.1577 28.0842C24.7674 27.6939 24.6419 27.2301 24.5931 26.8671C24.5514 26.5572 24.5516 26.1901 24.5517 25.8506C24.5517 25.8315 24.5517 25.8125 24.5517 25.7936V24.1384C24.5517 24.1195 24.5517 24.1005 24.5517 24.0814C24.5516 23.7419 24.5514 23.3748 24.5931 23.0649C24.6419 22.7019 24.7674 22.2382 25.1577 21.8479C25.548 21.4576 26.0117 21.3321 26.3748 21.2833C26.6846 21.2416 27.0517 21.2417 27.3912 21.2419ZM27.0364 23.7265C27.0345 23.8415 27.0345 23.9744 27.0345 24.1384V25.7936C27.0345 25.9576 27.0345 26.0905 27.0364 26.2055C27.1513 26.2073 27.2843 26.2074 27.4483 26.2074H29.1034C29.2674 26.2074 29.4003 26.2073 29.5153 26.2055C29.5172 26.0905 29.5172 25.9576 29.5172 25.7936V24.1384C29.5172 23.9744 29.5172 23.8415 29.5153 23.7265C29.4003 23.7247 29.2674 23.7246 29.1034 23.7246H27.4483C27.2843 23.7246 27.1513 23.7247 27.0364 23.7265Z" fill="#FF0032"/>
<path fill-rule="evenodd" clip-rule="evenodd" d="M19.1154 11.3109C19.1345 11.3109 19.1535 11.3109 19.1724 11.3109H20.8276C20.8465 11.3109 20.8655 11.3109 20.8846 11.3109C21.2241 11.3107 21.5912 11.3106 21.9011 11.3522C22.2641 11.4011 22.7279 11.5266 23.1181 11.9169C23.5084 12.3072 23.634 12.7709 23.6828 13.1339C23.7244 13.4438 23.7243 13.8109 23.7241 14.1504C23.7241 14.1695 23.7241 14.1885 23.7241 14.2074V15.8626C23.7241 15.8815 23.7241 15.9005 23.7241 15.9196C23.7243 16.2591 23.7244 16.6262 23.6828 16.9361C23.634 17.2991 23.5084 17.7629 23.1181 18.1532C22.7279 18.5434 22.2641 18.669 21.9011 18.7178C21.5912 18.7594 21.2241 18.7593 20.8846 18.7591C20.8655 18.7591 20.8465 18.7591 20.8276 18.7591H19.1724C19.1535 18.7591 19.1345 18.7591 19.1154 18.7591C18.7759 18.7593 18.4088 18.7594 18.0989 18.7178C17.7359 18.669 17.2721 18.5434 16.8819 18.1532C16.4916 17.7629 16.366 17.2991 16.3172 16.9361C16.2756 16.6262 16.2757 16.2591 16.2759 15.9196C16.2759 15.9005 16.2759 15.8815 16.2759 15.8626V14.2074C16.2759 14.1885 16.2759 14.1695 16.2759 14.1504C16.2757 13.8109 16.2756 13.4438 16.3172 13.1339C16.366 12.7709 16.4916 12.3072 16.8819 11.9169C17.2721 11.5266 17.7359 11.4011 18.0989 11.3522C18.4088 11.3106 18.7759 11.3107 19.1154 11.3109ZM18.7605 13.7955C18.7587 13.9105 18.7586 14.0434 18.7586 14.2074V15.8626C18.7586 16.0266 18.7587 16.1595 18.7605 16.2745C18.8755 16.2763 19.0084 16.2764 19.1724 16.2764H20.8276C20.9916 16.2764 21.1245 16.2763 21.2395 16.2745C21.2413 16.1595 21.2414 16.0266 21.2414 15.8626V14.2074C21.2414 14.0434 21.2413 13.9105 21.2395 13.7955C21.1245 13.7937 20.9916 13.7936 20.8276 13.7936H19.1724C19.0084 13.7936 18.8755 13.7937 18.7605 13.7955Z" fill="#FF0032"/>
<path fill-rule="evenodd" clip-rule="evenodd" d="M11.7242 8.82812C12.4098 8.82812 12.9655 9.38391 12.9655 10.0695V24.1384C12.9655 24.824 12.4098 25.3798 11.7242 25.3798C11.0386 25.3798 10.4828 24.824 10.4828 24.1384V10.0695C10.4828 9.38391 11.0386 8.82812 11.7242 8.82812Z" fill="#FF0032"/>
<path fill-rule="evenodd" clip-rule="evenodd" d="M20 8.82812C20.6856 8.82812 21.2414 9.38391 21.2414 10.0695V12.5523C21.2414 13.2378 20.6856 13.7936 20 13.7936C19.3144 13.7936 18.7586 13.2378 18.7586 12.5523V10.0695C18.7586 9.38391 19.3144 8.82812 20 8.82812Z" fill="#FF0032"/>
<path fill-rule="evenodd" clip-rule="evenodd" d="M20 20.4143C20.6856 20.4143 21.2414 20.9701 21.2414 21.6557V29.9315C21.2414 30.6171 20.6856 31.1729 20 31.1729C19.3144 31.1729 18.7586 30.6171 18.7586 29.9315V21.6557C18.7586 20.9701 19.3144 20.4143 20 20.4143Z" fill="#FF0032"/>
<path fill-rule="evenodd" clip-rule="evenodd" d="M28.2758 27.035C28.9614 27.035 29.5172 27.5908 29.5172 28.2764V29.9315C29.5172 30.6171 28.9614 31.1729 28.2758 31.1729C27.5902 31.1729 27.0345 30.6171 27.0345 29.9315V28.2764C27.0345 27.5908 27.5902 27.035 28.2758 27.035Z" fill="#FF0032"/>
<path fill-rule="evenodd" clip-rule="evenodd" d="M28.2758 8.82812C28.9614 8.82812 29.5172 9.38391 29.5172 10.0695V18.3453C29.5172 19.0309 28.9614 19.5867 28.2758 19.5867C27.5902 19.5867 27.0345 19.0309 27.0345 18.3453V10.0695C27.0345 9.38391 27.5902 8.82812 28.2758 8.82812Z" fill="#FF0032"/>
</svg>