<svg xmlns="http://www.w3.org/2000/svg" width="40" height="40" viewBox="0 0 40 40" fill="none">
<path fill-rule="evenodd" clip-rule="evenodd" d="M13.4194 30.4512C13.4194 29.8098 13.9393 29.2899 14.5807 29.2899H25.4193C26.0607 29.2899 26.5806 29.8098 26.5806 30.4512C26.5806 31.0925 26.0607 31.6125 25.4193 31.6125H14.5807C13.9393 31.6125 13.4194 31.0925 13.4194 30.4512Z" fill="#FF0032"/>
<path fill-rule="evenodd" clip-rule="evenodd" d="M17.456 8.38675C17.5288 8.38677 17.6026 8.38678 17.6774 8.38678H22.3226C22.3974 8.38678 22.4712 8.38677 22.544 8.38675C24.492 8.38632 25.7337 8.38604 26.7801 8.70348C29.1307 9.41653 30.9702 11.256 31.6832 13.6066C32.0007 14.653 32.0004 15.8947 32 17.8427C32 17.9155 31.9999 17.9893 31.9999 18.0641C31.9999 18.139 32 18.2128 32 18.2856C32.0004 20.2336 32.0007 21.4753 31.6832 22.5217C30.9702 24.8723 29.1307 26.7118 26.7801 27.4248C25.7337 27.7423 24.492 27.742 22.544 27.7416C22.4712 27.7415 22.3974 27.7415 22.3226 27.7415H17.6774C17.6026 27.7415 17.5288 27.7415 17.456 27.7416C15.508 27.742 14.2663 27.7423 13.2199 27.4248C10.8693 26.7118 9.02981 24.8723 8.31676 22.5217C7.99932 21.4753 7.9996 20.2336 8.00003 18.2856C8.00005 18.2128 8.00006 18.139 8.00006 18.0641C8.00006 17.9893 8.00005 17.9155 8.00003 17.8427C7.9996 15.8947 7.99932 14.653 8.31676 13.6066C9.02981 11.256 10.8693 9.41653 13.2199 8.70348C14.2663 8.38604 15.508 8.38632 17.456 8.38675ZM17.6774 10.7094C15.4321 10.7094 14.5669 10.722 13.8941 10.926C12.2858 11.4139 11.0272 12.6725 10.5393 14.2808C10.3352 14.9536 10.3226 15.8188 10.3226 18.0641C10.3226 20.3095 10.3352 21.1747 10.5393 21.8475C11.0272 23.4558 12.2858 24.7144 13.8941 25.2023C14.5669 25.4063 15.4321 25.4189 17.6774 25.4189H22.3226C24.5679 25.4189 25.4332 25.4063 26.1059 25.2023C27.7142 24.7144 28.9728 23.4558 29.4607 21.8475C29.6648 21.1747 29.6774 20.3095 29.6774 18.0641C29.6774 15.8188 29.6648 14.9536 29.4607 14.2808C28.9728 12.6725 27.7142 11.4139 26.1059 10.926C25.4332 10.722 24.5679 10.7094 22.3226 10.7094H17.6774Z" fill="#FF0032"/>
<path fill-rule="evenodd" clip-rule="evenodd" d="M21.8955 15.3545C23.4322 15.3545 24.4918 16.59 24.2147 18.2613C24.1263 18.7945 23.7908 19.227 23.3272 19.5518C23.0981 19.7124 22.858 19.8308 22.648 19.9069C22.5437 19.9446 22.4541 19.9693 22.3841 19.9839C22.3192 19.9974 22.2854 19.9993 22.2807 19.9996V19.9996L17.6606 19.9996C16.1547 19.9996 15.742 19.1565 15.742 18.8383C15.742 18.5121 15.8779 18.1932 16.1853 17.966C16.498 17.7348 17.1261 17.5016 18.2655 17.6653C18.822 17.7452 19.3559 17.4149 19.5329 16.8812C19.7681 16.1715 20.5724 15.3545 21.8955 15.3545ZM26.506 18.6411C26.999 15.6674 24.9785 13.0319 21.8955 13.0319C19.9534 13.0319 18.4891 14.0404 17.7283 15.2908C16.5549 15.2594 15.5629 15.5378 14.8047 16.0983C13.8609 16.7959 13.4194 17.8318 13.4194 18.8383C13.4194 20.8428 15.3166 22.3222 17.6606 22.3222H22.2805C22.9671 22.3222 23.8886 21.9945 24.6601 21.4539C25.467 20.8884 26.2864 19.9661 26.506 18.6411Z" fill="#FF0032"/>
</svg>