<svg xmlns="http://www.w3.org/2000/svg" width="40" height="40" viewBox="0 0 40 40" fill="none">
<path fill-rule="evenodd" clip-rule="evenodd" d="M16.9159 12.1489C16.0739 13.1902 15.7419 14.4737 15.7419 15.3548C15.7419 15.9962 15.222 16.5161 14.5806 16.5161C13.2257 16.5161 12.1526 16.8639 11.4437 17.4315C10.7681 17.9726 10.3226 18.7902 10.3226 20C10.3226 20.8454 10.7639 21.625 11.4385 22.1689C11.9379 22.5715 12.0163 23.3025 11.6137 23.8018C11.2112 24.3012 10.4801 24.3796 9.98081 23.9771C8.87369 23.0845 8 21.6827 8 20C8 18.1369 8.72664 16.6319 9.99191 15.6187C10.9663 14.8383 12.1937 14.4009 13.5153 14.2521C13.7087 13.1022 14.2057 11.8067 15.1099 10.6885C16.3558 9.14771 18.3326 8 21.1613 8C25.8893 8 28.7403 12.0232 28.6062 16.3367C29.4452 16.5725 30.1765 16.9905 30.7501 17.579C31.5778 18.4283 32 19.555 32 20.7742C32 22.1371 31.4253 23.1926 30.6415 23.9227C30.1722 24.3599 29.4373 24.3338 29.0002 23.8645C28.563 23.3952 28.5891 22.6604 29.0584 22.2232C29.4217 21.8848 29.6774 21.4257 29.6774 20.7742C29.6774 20.1031 29.4533 19.5761 29.0868 19.2001C28.7171 18.8207 28.1253 18.5174 27.2617 18.4479C26.9404 18.422 26.6443 18.2638 26.4443 18.0111C26.2442 17.7583 26.1582 17.4338 26.2068 17.1152C26.7704 13.4204 24.5112 10.3226 21.1613 10.3226C19.0351 10.3226 17.7216 11.1525 16.9159 12.1489Z" fill="#FF0032"/>
<path d="M14.1935 32C15.4763 32 16.5161 30.9601 16.5161 29.6774C16.5161 28.8177 16.0491 28.0671 15.3548 27.6656V25.8064C15.3548 25.5927 15.5281 25.4194 15.7419 25.4194H18.3752C18.7768 26.1136 19.5274 26.5806 20.3871 26.5806C21.2468 26.5806 21.9974 26.1136 22.399 25.4194H25.0323C25.246 25.4194 25.4194 25.5927 25.4194 25.8064V27.6656C24.7251 28.0671 24.2581 28.8177 24.2581 29.6774C24.2581 30.9601 25.2979 32 26.5806 32C27.8634 32 28.9032 30.9601 28.9032 29.6774C28.9032 28.8177 28.4362 28.0671 27.7419 27.6656V25.8064C27.7419 24.3099 26.5288 23.0968 25.0323 23.0968H22.399C22.195 22.7442 21.901 22.4502 21.5484 22.2462V18.8387C21.5484 18.1973 21.0285 17.6774 20.3871 17.6774C19.7457 17.6774 19.2258 18.1973 19.2258 18.8387V22.2462C18.8732 22.4502 18.5792 22.7442 18.3752 23.0968H15.7419C14.2454 23.0968 13.0323 24.3099 13.0323 25.8064V27.6656C12.338 28.0671 11.871 28.8177 11.871 29.6774C11.871 30.9601 12.9108 32 14.1935 32Z" fill="#FF0032"/>
</svg>