<svg xmlns="http://www.w3.org/2000/svg" width="40" height="40" viewBox="0 0 40 40" fill="none">
<path d="M20 13.1999C21.3255 13.1999 22.4 14.2744 22.4 15.5999C22.4 16.9254 21.3255 17.9999 20 17.9999C18.6745 17.9999 17.6 16.9254 17.6 15.5999C17.6 14.2744 18.6745 13.1999 20 13.1999Z" fill="#FF0032"/>
<path fill-rule="evenodd" clip-rule="evenodd" d="M20 21.5998C18.4536 21.5998 17.2 22.8534 17.2 24.3998C17.2 25.0625 16.6628 25.5998 16.0001 25.5998C15.3373 25.5998 14.8001 25.0625 14.8001 24.3998C14.8001 21.528 17.1282 19.1999 20 19.1999C20.6627 19.1999 21.2 19.7371 21.2 20.3999C21.2 21.0626 20.6627 21.5998 20 21.5998Z" fill="#FF0032"/>
<path fill-rule="evenodd" clip-rule="evenodd" d="M25.0222 18.6739C25.459 18.493 25.9271 18.3999 26.3999 18.3999C26.8726 18.3999 27.3408 18.493 27.7775 18.6739C28.2143 18.8548 28.6111 19.12 28.9454 19.4543C29.2797 19.7886 29.5449 20.1855 29.7258 20.6222C29.9067 21.059 29.9998 21.5271 29.9998 21.9998C29.9998 21.9998 29.9998 21.9998 29.9998 21.9998L29.9999 23.5997C29.9999 24.2625 29.4627 24.7998 28.8 24.7998C28.1373 24.7998 27.6 24.2626 27.5999 23.5999L27.5998 21.9999C27.5998 21.8424 27.5688 21.6862 27.5085 21.5406C27.4482 21.395 27.3598 21.2627 27.2483 21.1513C27.1369 21.0399 27.0046 20.9515 26.8591 20.8912C26.7135 20.8309 26.5575 20.7999 26.3999 20.7999C26.2423 20.7999 26.0863 20.8309 25.9407 20.8912C25.7951 20.9515 25.6628 21.0399 25.5514 21.1513C25.44 21.2627 25.3516 21.395 25.2913 21.5406C25.231 21.6862 25.1999 21.8423 25.1999 21.9999V23.5998C25.1999 24.2626 24.6627 24.7998 24 24.7998C23.3372 24.7998 22.8 24.2626 22.8 23.5998V21.9999C22.8 21.5271 22.8931 21.059 23.074 20.6222C23.2549 20.1855 23.5201 19.7886 23.8544 19.4543C24.1886 19.12 24.5855 18.8548 25.0222 18.6739Z" fill="#FF0032"/>
<path fill-rule="evenodd" clip-rule="evenodd" d="M25.5283 22.3998C25.5521 22.3998 25.576 22.3998 25.5999 22.3998H27.1999C27.2239 22.3998 27.2477 22.3998 27.2715 22.3998C27.964 22.3997 28.5989 22.3997 29.1154 22.4691C29.6842 22.5456 30.2854 22.7255 30.7798 23.2199C31.2742 23.7144 31.4541 24.3155 31.5306 24.8843C31.6 25.4008 31.6 26.0357 31.5999 26.7282C31.5999 26.752 31.5999 26.7759 31.5999 26.7998V27.5998C31.5999 27.6237 31.5999 27.6476 31.5999 27.6714C31.6 28.3639 31.6 28.9988 31.5306 29.5153C31.4541 30.084 31.2742 30.6852 30.7798 31.1796C30.2854 31.6741 29.6842 31.854 29.1154 31.9304C28.5989 31.9999 27.964 31.9998 27.2715 31.9997C27.2477 31.9997 27.2239 31.9997 27.1999 31.9997H25.5999C25.576 31.9997 25.5522 31.9997 25.5284 31.9997C24.8359 31.9998 24.2009 31.9999 23.6844 31.9304C23.1157 31.854 22.5145 31.6741 22.0201 31.1796C21.5257 30.6852 21.3457 30.084 21.2693 29.5153C21.1998 28.9988 21.1999 28.3639 21.2 27.6714C21.2 27.6476 21.2 27.6237 21.2 27.5998V26.7998C21.2 26.7758 21.2 26.752 21.2 26.7282C21.1999 26.0357 21.1998 25.4008 21.2693 24.8843C21.3457 24.3155 21.5257 23.7144 22.0201 23.2199C22.5145 22.7255 23.1157 22.5456 23.6844 22.4691C24.2009 22.3997 24.8358 22.3997 25.5283 22.3998ZM23.7171 24.917C23.7177 24.9165 23.7179 24.9162 23.7171 24.917C23.7164 24.9177 23.7167 24.9175 23.7171 24.917C23.7172 24.9169 23.7171 24.917 23.7171 24.917C23.7164 24.9177 23.7167 24.9175 23.7171 24.917C23.7172 24.9169 23.7171 24.917 23.7171 24.917C23.7164 24.9177 23.7167 24.9175 23.7171 24.917C23.7177 24.9165 23.7179 24.9162 23.7171 24.917C23.7172 24.9169 23.7171 24.917 23.7171 24.917C23.7177 24.9165 23.7179 24.9162 23.7171 24.917C23.7172 24.9169 23.7171 24.917 23.7171 24.917ZM23.7171 24.917C23.7167 24.9176 23.716 24.9189 23.7149 24.9209C23.7133 24.924 23.7107 24.9293 23.7074 24.9373C23.6931 24.9722 23.6686 25.0496 23.6478 25.2041C23.6025 25.5412 23.6 26.0116 23.6 26.7998V27.5998C23.6 28.3879 23.6025 28.8583 23.6478 29.1955C23.6686 29.35 23.6931 29.4274 23.7074 29.4622C23.7107 29.4703 23.7133 29.4756 23.7149 29.4787C23.716 29.4806 23.7167 29.4819 23.7171 29.4826C23.7178 29.483 23.7191 29.4837 23.721 29.4848C23.7241 29.4864 23.7294 29.489 23.7375 29.4923C23.7724 29.5066 23.8497 29.5311 24.0042 29.5519C24.3414 29.5972 24.8118 29.5997 25.5999 29.5997H27.1999C27.9881 29.5997 28.4585 29.5972 28.7956 29.5519C28.9501 29.5311 29.0275 29.5066 29.0624 29.4923C29.0704 29.489 29.0757 29.4864 29.0788 29.4848C29.0808 29.4837 29.0821 29.483 29.0827 29.4826C29.0832 29.4819 29.0839 29.4806 29.0849 29.4787C29.0865 29.4756 29.0891 29.4703 29.0925 29.4622C29.1068 29.4274 29.1313 29.35 29.152 29.1955C29.1974 28.8583 29.1999 28.3879 29.1999 27.5998V26.7998C29.1999 26.0116 29.1974 25.5412 29.152 25.2041C29.1313 25.0496 29.1068 24.9722 29.0925 24.9373C29.0891 24.9293 29.0865 24.924 29.0849 24.9209C29.0839 24.9189 29.0832 24.9176 29.0827 24.917C29.0821 24.9165 29.0808 24.9158 29.0788 24.9148C29.0757 24.9132 29.0704 24.9106 29.0624 24.9073C29.0275 24.8929 28.9501 24.8685 28.7956 24.8477C28.4585 24.8024 27.9881 24.7998 27.1999 24.7998H25.5999C24.8118 24.7998 24.3414 24.8024 24.0042 24.8477C23.8497 24.8685 23.7724 24.8929 23.7375 24.9073C23.7294 24.9106 23.7241 24.9132 23.721 24.9148C23.7191 24.9158 23.7178 24.9165 23.7171 24.917Z" fill="#FF0032"/>
<path fill-rule="evenodd" clip-rule="evenodd" d="M23.3326 10.8504C21.1562 10.2498 18.8436 10.2498 16.6671 10.8504C14.6179 11.4159 12.9174 12.1569 10.9438 13.455C10.8678 13.505 10.8001 13.6093 10.8001 13.7506V21.79C10.8001 21.7895 10.8002 21.7898 10.8003 21.791C10.8014 21.8026 10.811 21.898 10.8803 22.0962C10.9515 22.2997 11.0676 22.5608 11.2373 22.8713C11.5762 23.4916 12.0977 24.2525 12.7995 25.0656C14.2034 26.6923 16.2737 28.464 18.914 29.7154C19.5128 29.9992 19.7682 30.7148 19.4844 31.3137C19.2005 31.9126 18.485 32.1679 17.8861 31.8841C14.9023 30.4699 12.5726 28.4759 10.9826 26.6337C10.1875 25.7125 9.56347 24.8132 9.13119 24.022C8.72901 23.286 8.40015 22.479 8.40015 21.79V13.7506C8.40015 12.8476 8.83662 11.9684 9.62497 11.4499C11.8136 10.0103 13.7446 9.16716 16.0288 8.53687C18.623 7.82104 21.3768 7.82105 23.971 8.53685C26.2553 9.16714 28.1864 10.0103 30.3751 11.4499C31.1634 11.9684 31.5999 12.8476 31.5999 13.7506V16.3582C31.5999 17.021 31.0626 17.5582 30.3999 17.5582C29.7372 17.5582 29.1999 17.021 29.1999 16.3582V13.7506C29.1999 13.6093 29.1322 13.505 29.0562 13.455C27.0826 12.1569 25.382 11.4158 23.3326 10.8504Z" fill="#FF0032"/>
</svg>