<svg xmlns="http://www.w3.org/2000/svg" width="40" height="40" viewBox="0 0 40 40" fill="none">
<path fill-rule="evenodd" clip-rule="evenodd" d="M8.77419 15.3548C8.77419 11.2929 12.0671 8 16.129 8H22.3226C26.3845 8 29.6774 11.2929 29.6774 15.3548V16.129C29.6774 17.198 28.8109 18.0645 27.7419 18.0645H11.0968V23.0968C11.0968 25.876 13.3498 28.129 16.129 28.129H17.6774C18.3188 28.129 18.8387 28.649 18.8387 29.2903C18.8387 29.9317 18.3188 30.4516 17.6774 30.4516H16.129C12.0671 30.4516 8.77419 27.1587 8.77419 23.0968V15.3548ZM11.0968 15.7419H27.3548V15.3548C27.3548 12.5756 25.1018 10.3226 22.3226 10.3226H16.129C13.3498 10.3226 11.0968 12.5756 11.0968 15.3548V15.7419Z" fill="#FF0032"/>
<path fill-rule="evenodd" clip-rule="evenodd" d="M26.9873 22.8723C26.2162 22.6555 25.3965 22.6555 24.6255 22.8723C23.9357 23.0662 23.3585 23.3101 22.7097 23.7175V26.7237C22.7102 26.7252 22.7108 26.7268 22.7114 26.7285C22.732 26.7851 22.773 26.8772 22.8433 27.0014C22.9834 27.249 23.2088 27.5689 23.521 27.9127C24.0713 28.5187 24.8457 29.1489 25.8064 29.5834C26.7672 29.1489 27.5416 28.5187 28.0919 27.9127C28.4041 27.5689 28.6295 27.2489 28.7696 27.0014C28.8399 26.8772 28.8809 26.7851 28.9015 26.7285C28.9021 26.7268 28.9027 26.7252 28.9032 26.7237V23.7175C28.2544 23.3101 27.6771 23.0662 26.9873 22.8723ZM23.9969 20.6364C25.179 20.304 26.4337 20.304 27.6159 20.6364C28.6185 20.9182 29.4745 21.2996 30.4309 21.9405C30.9523 22.2899 31.2258 22.8698 31.2258 23.4467V26.8005C31.2258 27.0786 31.1524 27.335 31.0839 27.5232C31.0092 27.7282 30.9081 27.9384 30.7908 28.1455C30.556 28.5605 30.2249 29.0187 29.8113 29.4741C28.9853 30.3836 27.7718 31.3457 26.2118 31.9269C25.9503 32.0244 25.6625 32.0244 25.401 31.9269C23.841 31.3457 22.6275 30.3836 21.8016 29.4741C21.388 29.0187 21.0569 28.5604 20.822 28.1455C20.7048 27.9384 20.6037 27.7282 20.529 27.5232C20.4605 27.335 20.3871 27.0786 20.3871 26.8005V23.4467C20.3871 22.8698 20.6606 22.2899 21.182 21.9405C22.1384 21.2996 22.9943 20.9182 23.9969 20.6364Z" fill="#FF0032"/>
</svg>